<svg xmlns="http://www.w3.org/2000/svg" viewBox="0 0 850.39 850.39"><defs><style>.cls-1{fill:none;stroke:#92c466;stroke-miterlimit:10;stroke-width:2px;}.cls-2{fill:#92c466;}.cls-3{fill:#2a4b9b;}</style></defs><title>20.06.10 Yuri Antenna 5</title><g id="Text"><path class="cls-1" d="M222.69,389.75c-50.23.35-67.24-23.84-51.21-73.12Z"/><polygon class="cls-1" points="190.42 343.23 221.56 336.79 205.3 364.47 197.47 353.3 190.42 343.23"/><line class="cls-1" x1="221.56" y1="336.79" x2="196.99" y2="353.69"/><path class="cls-1" d="M233.09,308.78q17.78,6.5,18.31,25.13"/><path class="cls-1" d="M231.42,317q11.24,4.72,11.64,15.76"/><path class="cls-1" d="M229.77,324.08q6,2.69,6.22,8.53"/><line class="cls-1" x1="219.17" y1="330.58" x2="225.83" y2="339.71"/><path class="cls-2" d="M208.47,408.72l.18,4.11a11.91,11.91,0,0,1,9.79-4.72q10.38,0,10.46,11.7v21.61h-5.59V419.78q0-3.54-1.62-5.23t-4.94-1.69a8,8,0,0,0-4.77,1.45,9.87,9.87,0,0,0-3.21,3.81v23.3h-5.59v-32.7Z"/><path class="cls-2" d="M245.54,400.8v7.92h6.11V413h-6.11v20.31a4.57,4.57,0,0,0,.82,2.95,3.46,3.46,0,0,0,2.78,1,13.6,13.6,0,0,0,2.66-.36v4.51a16.31,16.31,0,0,1-4.29.6,7,7,0,0,1-5.65-2.27,9.74,9.74,0,0,1-1.91-6.44V413H234v-4.32H240V400.8Z"/><path class="cls-2" d="M272.37,442a14.3,14.3,0,0,1-10.82-4.37q-4.17-4.37-4.17-11.68v-1a19.6,19.6,0,0,1,1.86-8.69,14.49,14.49,0,0,1,5.2-6,13.06,13.06,0,0,1,7.24-2.16q6.38,0,9.91,4.2c2.36,2.8,3.54,6.82,3.54,12v2.33H263a11.61,11.61,0,0,0,2.83,7.82,8.88,8.88,0,0,0,6.87,3,9.7,9.7,0,0,0,5-1.21,12.55,12.55,0,0,0,3.6-3.2l3.41,2.66Q280.59,442,272.37,442Zm-.69-29.32a7.47,7.47,0,0,0-5.69,2.46,12,12,0,0,0-2.84,6.91h16.39v-.43a10.69,10.69,0,0,0-2.3-6.6A7,7,0,0,0,271.68,412.71Z"/><path class="cls-2" d="M297.51,408.72l.18,4.11a11.9,11.9,0,0,1,9.79-4.72q10.36,0,10.46,11.7v21.61h-5.59V419.78q0-3.54-1.62-5.23t-4.94-1.69a8.07,8.07,0,0,0-4.78,1.45,9.76,9.76,0,0,0-3.2,3.81v23.3h-5.59v-32.7Z"/><path class="cls-2" d="M332.28,408.72l.18,4.11a11.92,11.92,0,0,1,9.8-4.72q10.37,0,10.46,11.7v21.61h-5.59V419.78c0-2.36-.56-4.1-1.62-5.23s-2.71-1.69-4.94-1.69a8,8,0,0,0-4.78,1.45,9.76,9.76,0,0,0-3.2,3.81v23.3H327v-32.7Z"/><path class="cls-2" d="M375.34,442a14.3,14.3,0,0,1-10.82-4.37q-4.17-4.37-4.17-11.68v-1a19.6,19.6,0,0,1,1.86-8.69,14.49,14.49,0,0,1,5.2-6,13.06,13.06,0,0,1,7.24-2.16q6.38,0,9.91,4.2c2.36,2.8,3.54,6.82,3.54,12v2.33H365.94a11.61,11.61,0,0,0,2.83,7.82,8.88,8.88,0,0,0,6.88,3,9.68,9.68,0,0,0,5-1.21,12.55,12.55,0,0,0,3.6-3.2l3.42,2.66C384.93,439.92,380.83,442,375.34,442Zm-.69-29.32a7.45,7.45,0,0,0-5.68,2.46,12,12,0,0,0-2.85,6.91h16.39v-.43a10.69,10.69,0,0,0-2.3-6.6A7,7,0,0,0,374.65,412.71Z"/><path class="cls-3" d="M163.1,476.25v6.95h-2.34V465.43h6.55a6.58,6.58,0,0,1,4.57,1.49,5.61,5.61,0,0,1,0,7.93,6.89,6.89,0,0,1-4.63,1.4Zm0-1.92h4.21a4.19,4.19,0,0,0,2.88-.89,3.23,3.23,0,0,0,1-2.56,3.33,3.33,0,0,0-1-2.54,3.88,3.88,0,0,0-2.74-1H163.1Z"/><path class="cls-3" d="M184,483.45a5.76,5.76,0,0,1-4.37-1.77,6.53,6.53,0,0,1-1.69-4.71v-.42a7.94,7.94,0,0,1,.75-3.51,5.88,5.88,0,0,1,2.1-2.41,5.24,5.24,0,0,1,2.93-.88,5,5,0,0,1,4,1.7,7.36,7.36,0,0,1,1.43,4.86v.94h-9a4.71,4.71,0,0,0,1.14,3.15,3.6,3.6,0,0,0,2.78,1.2,4,4,0,0,0,2-.48,5.24,5.24,0,0,0,1.45-1.3L189,480.9A5.55,5.55,0,0,1,184,483.45Zm-.28-11.84a3,3,0,0,0-2.3,1,4.82,4.82,0,0,0-1.14,2.79h6.61v-.17a4.23,4.23,0,0,0-.93-2.67A2.82,2.82,0,0,0,183.72,471.61Z"/><path class="cls-3" d="M200.65,472a7.83,7.83,0,0,0-1.11-.08,3,3,0,0,0-3,1.89v9.37h-2.26V470h2.2l0,1.52a3.51,3.51,0,0,1,3.14-1.77,2.42,2.42,0,0,1,1,.17Z"/><path class="cls-3" d="M212.91,479.7a1.66,1.66,0,0,0-.69-1.42,6.52,6.52,0,0,0-2.4-.87,11.83,11.83,0,0,1-2.73-.88,3.93,3.93,0,0,1-1.48-1.22,2.9,2.9,0,0,1-.49-1.69,3.4,3.4,0,0,1,1.38-2.74,5.34,5.34,0,0,1,3.51-1.13,5.54,5.54,0,0,1,3.64,1.16,3.69,3.69,0,0,1,1.4,3h-2.27a2.06,2.06,0,0,0-.79-1.6,3,3,0,0,0-2-.67,3.12,3.12,0,0,0-1.93.53,1.69,1.69,0,0,0-.7,1.41,1.38,1.38,0,0,0,.65,1.23,8,8,0,0,0,2.34.8,12.19,12.19,0,0,1,2.74.9,3.93,3.93,0,0,1,1.55,1.26,3.08,3.08,0,0,1,.51,1.8,3.37,3.37,0,0,1-1.42,2.84,5.92,5.92,0,0,1-3.67,1.07,6.74,6.74,0,0,1-2.81-.56,4.65,4.65,0,0,1-1.91-1.57,3.78,3.78,0,0,1-.69-2.18h2.26a2.31,2.31,0,0,0,.91,1.8,3.53,3.53,0,0,0,2.24.66,3.72,3.72,0,0,0,2.06-.51A1.61,1.61,0,0,0,212.91,479.7Z"/><path class="cls-3" d="M220,476.48a7.75,7.75,0,0,1,.77-3.49,5.64,5.64,0,0,1,2.12-2.4,5.8,5.8,0,0,1,3.11-.84,5.54,5.54,0,0,1,4.36,1.87,7.18,7.18,0,0,1,1.67,5v.16a7.91,7.91,0,0,1-.74,3.46,5.62,5.62,0,0,1-2.11,2.38,5.87,5.87,0,0,1-3.16.86,5.54,5.54,0,0,1-4.35-1.87,7.14,7.14,0,0,1-1.67-4.94Zm2.27.27a5.62,5.62,0,0,0,1,3.52,3.47,3.47,0,0,0,5.47,0,6.22,6.22,0,0,0,1-3.78,5.68,5.68,0,0,0-1-3.52,3.28,3.28,0,0,0-2.74-1.35,3.23,3.23,0,0,0-2.7,1.33A6.15,6.15,0,0,0,222.28,476.75Z"/><path class="cls-3" d="M239.51,470l.07,1.66a4.82,4.82,0,0,1,3.95-1.91c2.8,0,4.2,1.58,4.23,4.73v8.72H245.5v-8.74a3.09,3.09,0,0,0-.65-2.11,2.66,2.66,0,0,0-2-.68,3.26,3.26,0,0,0-1.93.58,4.12,4.12,0,0,0-1.29,1.54v9.41h-2.26V470Z"/><path class="cls-3" d="M261.82,483.2a4.65,4.65,0,0,1-.32-1.39,5,5,0,0,1-3.76,1.64,4.63,4.63,0,0,1-3.2-1.11,3.55,3.55,0,0,1-1.26-2.8,3.75,3.75,0,0,1,1.57-3.2,7.43,7.43,0,0,1,4.42-1.14h2.19v-1a2.52,2.52,0,0,0-.71-1.89,2.81,2.81,0,0,0-2.08-.7,3.28,3.28,0,0,0-2,.61,1.82,1.82,0,0,0-.82,1.48h-2.27a3.15,3.15,0,0,1,.7-1.91,4.81,4.81,0,0,1,1.91-1.46,6.36,6.36,0,0,1,2.64-.54,5.23,5.23,0,0,1,3.58,1.14,4.12,4.12,0,0,1,1.34,3.15v6.08a7.62,7.62,0,0,0,.46,2.89v.19Zm-3.75-1.72a3.9,3.9,0,0,0,2-.55,3.22,3.22,0,0,0,1.38-1.43v-2.7h-1.77c-2.76,0-4.15.81-4.15,2.42a2,2,0,0,0,.71,1.66A2.72,2.72,0,0,0,258.07,481.48Z"/><path class="cls-3" d="M272.21,483.2H270V464.45h2.25Z"/><path class="cls-3" d="M289.51,476.75a7.83,7.83,0,0,1-1.39,4.86,4.44,4.44,0,0,1-3.74,1.84,4.6,4.6,0,0,1-3.87-1.77l-.11,1.52h-2.07V464.45h2.26v7a4.58,4.58,0,0,1,3.77-1.7,4.49,4.49,0,0,1,3.78,1.82,8.11,8.11,0,0,1,1.37,5Zm-2.26-.26a6.1,6.1,0,0,0-.89-3.56,2.94,2.94,0,0,0-2.56-1.26,3.31,3.31,0,0,0-3.21,2.07v5.72a3.41,3.41,0,0,0,3.23,2.07,2.94,2.94,0,0,0,2.53-1.26A6.49,6.49,0,0,0,287.25,476.49Z"/><path class="cls-3" d="M300.33,483.45a5.77,5.77,0,0,1-4.37-1.77,6.53,6.53,0,0,1-1.68-4.71v-.42A7.94,7.94,0,0,1,295,473a5.81,5.81,0,0,1,2.1-2.41,5.21,5.21,0,0,1,2.92-.88,5,5,0,0,1,4,1.7,7.36,7.36,0,0,1,1.43,4.86v.94h-8.95a4.66,4.66,0,0,0,1.14,3.15,3.59,3.59,0,0,0,2.78,1.2,4,4,0,0,0,2-.48,5.14,5.14,0,0,0,1.46-1.3l1.37,1.08A5.53,5.53,0,0,1,300.33,483.45Zm-.28-11.84a3,3,0,0,0-2.29,1,4.89,4.89,0,0,0-1.15,2.79h6.62v-.17a4.35,4.35,0,0,0-.93-2.67A2.83,2.83,0,0,0,300.05,471.61Z"/><path class="cls-3" d="M317,472a7.62,7.62,0,0,0-1.11-.08,3,3,0,0,0-3,1.89v9.37H310.6V470h2.2l0,1.52a3.52,3.52,0,0,1,3.15-1.77,2.37,2.37,0,0,1,1,.17Z"/><path class="cls-3" d="M329.22,483.2a4.72,4.72,0,0,1-.31-1.39,5.06,5.06,0,0,1-3.76,1.64,4.66,4.66,0,0,1-3.21-1.11,3.58,3.58,0,0,1-1.25-2.8,3.72,3.72,0,0,1,1.57-3.2,7.39,7.39,0,0,1,4.41-1.14h2.2v-1a2.56,2.56,0,0,0-.71-1.89,2.84,2.84,0,0,0-2.09-.7,3.25,3.25,0,0,0-2,.61,1.8,1.8,0,0,0-.82,1.48H321a3.09,3.09,0,0,1,.7-1.91,4.77,4.77,0,0,1,1.9-1.46,6.44,6.44,0,0,1,2.65-.54,5.21,5.21,0,0,1,3.57,1.14,4.13,4.13,0,0,1,1.35,3.15v6.08a7.43,7.43,0,0,0,.46,2.89v.19Zm-3.75-1.72a4,4,0,0,0,2-.55,3.33,3.33,0,0,0,1.38-1.43v-2.7H327.1q-4.16,0-4.15,2.42a2,2,0,0,0,.71,1.66A2.69,2.69,0,0,0,325.47,481.48Z"/><path class="cls-3" d="M340.23,466.8V470h2.47v1.74h-2.47v8.2a1.82,1.82,0,0,0,.33,1.19,1.36,1.36,0,0,0,1.12.4,6.1,6.1,0,0,0,1.08-.14v1.82a6.69,6.69,0,0,1-1.74.24,2.81,2.81,0,0,1-2.28-.92,3.93,3.93,0,0,1-.77-2.6v-8.19h-2.4V470H338v-3.2Z"/><path class="cls-3" d="M356,481.9a4.81,4.81,0,0,1-3.87,1.55,4.11,4.11,0,0,1-3.22-1.23,5.31,5.31,0,0,1-1.11-3.63V470H350v8.53c0,2,.82,3,2.44,3a3.38,3.38,0,0,0,3.45-1.93V470h2.26v13.2H356Z"/><path class="cls-3" d="M366.25,470l.07,1.66a4.82,4.82,0,0,1,4-1.91q4.19,0,4.22,4.73v8.72h-2.25v-8.74a3,3,0,0,0-.66-2.11,2.62,2.62,0,0,0-2-.68,3.24,3.24,0,0,0-1.93.58,4.05,4.05,0,0,0-1.3,1.54v9.41h-2.25V470Z"/><path class="cls-3" d="M379.87,476.49a7.75,7.75,0,0,1,1.43-4.91,4.92,4.92,0,0,1,7.56-.12L389,470H391v12.89a5.39,5.39,0,0,1-1.52,4,5.63,5.63,0,0,1-4.08,1.47,6.73,6.73,0,0,1-2.8-.61,4.76,4.76,0,0,1-2.09-1.67l1.17-1.35a4.45,4.45,0,0,0,3.56,1.79,3.46,3.46,0,0,0,2.57-.93,3.56,3.56,0,0,0,.92-2.61v-1.13a4.66,4.66,0,0,1-3.7,1.56,4.48,4.48,0,0,1-3.75-1.87A8.12,8.12,0,0,1,379.87,476.49Zm2.27.26a5.92,5.92,0,0,0,.92,3.51,3,3,0,0,0,2.56,1.27,3.31,3.31,0,0,0,3.14-1.94v-6a3.35,3.35,0,0,0-3.12-1.89,3,3,0,0,0-2.57,1.28A6.43,6.43,0,0,0,382.14,476.75Z"/><path class="cls-3" d="M413.78,483.2a4.65,4.65,0,0,1-.32-1.39,5,5,0,0,1-3.76,1.64,4.63,4.63,0,0,1-3.2-1.11,3.54,3.54,0,0,1-1.25-2.8,3.72,3.72,0,0,1,1.57-3.2,7.37,7.37,0,0,1,4.41-1.14h2.2v-1a2.56,2.56,0,0,0-.71-1.89,2.84,2.84,0,0,0-2.09-.7,3.28,3.28,0,0,0-2,.61,1.81,1.81,0,0,0-.81,1.48h-2.27a3.09,3.09,0,0,1,.7-1.91,4.7,4.7,0,0,1,1.9-1.46,6.36,6.36,0,0,1,2.64-.54,5.22,5.22,0,0,1,3.58,1.14,4.12,4.12,0,0,1,1.34,3.15v6.08a7.41,7.41,0,0,0,.47,2.89v.19ZM410,481.48a4,4,0,0,0,2-.55,3.33,3.33,0,0,0,1.38-1.43v-2.7h-1.77q-4.16,0-4.15,2.42a2,2,0,0,0,.7,1.66A2.72,2.72,0,0,0,410,481.48Z"/><path class="cls-3" d="M429.88,481.9a4.81,4.81,0,0,1-3.87,1.55,4.11,4.11,0,0,1-3.22-1.23,5.31,5.31,0,0,1-1.12-3.63V470h2.26v8.53c0,2,.82,3,2.44,3a3.38,3.38,0,0,0,3.45-1.93V470h2.25v13.2h-2.14Z"/><path class="cls-3" d="M439.12,483.2V471.74H437V470h2.09v-1.36a4.52,4.52,0,0,1,1.13-3.28,4.27,4.27,0,0,1,3.21-1.16,6.28,6.28,0,0,1,1.55.2l-.12,1.82a6.75,6.75,0,0,0-1.22-.11,2.21,2.21,0,0,0-1.7.65,2.59,2.59,0,0,0-.59,1.84V470h2.82v1.74h-2.82V483.2Z"/><path class="cls-3" d="M460.74,483.2H458.4V465.43h2.34Z"/><path class="cls-3" d="M469.43,471.59a4.83,4.83,0,0,1,3.91-1.84q4.19,0,4.22,4.73v8.72H475.3v-8.74a3,3,0,0,0-.65-2.11,2.64,2.64,0,0,0-2-.68,3.23,3.23,0,0,0-1.92.58,4.05,4.05,0,0,0-1.3,1.54v9.41h-2.26V464.45h2.26Z"/><path class="cls-3" d="M489.83,472a7.62,7.62,0,0,0-1.11-.08,3,3,0,0,0-3,1.89v9.37h-2.26V470h2.2l0,1.52a3.52,3.52,0,0,1,3.15-1.77,2.37,2.37,0,0,1,1,.17Z"/><path class="cls-3" d="M499.65,483.45a5.76,5.76,0,0,1-4.37-1.77A6.53,6.53,0,0,1,493.6,477v-.42a7.94,7.94,0,0,1,.75-3.51,5.81,5.81,0,0,1,2.1-2.41,5.21,5.21,0,0,1,2.92-.88,4.94,4.94,0,0,1,4,1.7,7.3,7.3,0,0,1,1.43,4.86v.94h-8.95A4.72,4.72,0,0,0,497,480.4a3.57,3.57,0,0,0,2.77,1.2,4,4,0,0,0,2-.48,5.11,5.11,0,0,0,1.45-1.3l1.38,1.08A5.55,5.55,0,0,1,499.65,483.45Zm-.28-11.84a3,3,0,0,0-2.29,1,4.82,4.82,0,0,0-1.15,2.79h6.61v-.17a4.29,4.29,0,0,0-.92-2.67A2.86,2.86,0,0,0,499.37,471.61Z"/><path class="cls-3" d="M516.3,472a7.62,7.62,0,0,0-1.11-.08,3,3,0,0,0-3,1.89v9.37h-2.26V470h2.2l0,1.52a3.52,3.52,0,0,1,3.15-1.77,2.37,2.37,0,0,1,1,.17Z"/><path class="cls-3" d="M533.75,477.6l.34,2.34.5-2.11,3.52-12.4h2l3.43,12.4L544,480l.38-2.39,2.76-12.16h2.36l-4.31,17.77h-2.14l-3.66-12.95-.28-1.35-.28,1.35L535,483.2h-2.14l-4.29-17.77h2.34Z"/><path class="cls-3" d="M559.34,483.45a5.77,5.77,0,0,1-4.37-1.77,6.53,6.53,0,0,1-1.68-4.71v-.42A7.94,7.94,0,0,1,554,473a5.81,5.81,0,0,1,2.1-2.41,5.21,5.21,0,0,1,2.92-.88,5,5,0,0,1,4,1.7,7.36,7.36,0,0,1,1.43,4.86v.94h-9a4.66,4.66,0,0,0,1.14,3.15,3.59,3.59,0,0,0,2.78,1.2,4,4,0,0,0,2-.48,5.14,5.14,0,0,0,1.46-1.3l1.37,1.08A5.53,5.53,0,0,1,559.34,483.45Zm-.28-11.84a3,3,0,0,0-2.29,1,4.89,4.89,0,0,0-1.15,2.79h6.62v-.17a4.35,4.35,0,0,0-.93-2.67A2.83,2.83,0,0,0,559.06,471.61Z"/><path class="cls-3" d="M572.06,483.2H569.8V464.45h2.26Z"/><path class="cls-3" d="M580.63,483.2h-2.26V464.45h2.26Z"/><path class="cls-3" d="M592.22,483.45a5.76,5.76,0,0,1-4.37-1.77,6.53,6.53,0,0,1-1.68-4.71v-.42a7.94,7.94,0,0,1,.75-3.51,5.81,5.81,0,0,1,2.1-2.41,5.21,5.21,0,0,1,2.92-.88,4.94,4.94,0,0,1,4,1.7,7.3,7.3,0,0,1,1.43,4.86v.94h-9a4.72,4.72,0,0,0,1.15,3.15,3.57,3.57,0,0,0,2.77,1.2,4,4,0,0,0,2-.48,5.11,5.11,0,0,0,1.45-1.3l1.38,1.08A5.55,5.55,0,0,1,592.22,483.45Zm-.28-11.84a3,3,0,0,0-2.29,1,4.82,4.82,0,0,0-1.15,2.79h6.61v-.17a4.29,4.29,0,0,0-.92-2.67A2.86,2.86,0,0,0,591.94,471.61Z"/><path class="cls-3" d="M604.62,470l.07,1.66a4.82,4.82,0,0,1,4-1.91q4.19,0,4.22,4.73v8.72h-2.26v-8.74a3,3,0,0,0-.65-2.11,2.64,2.64,0,0,0-2-.68,3.23,3.23,0,0,0-1.92.58,4.05,4.05,0,0,0-1.3,1.54v9.41h-2.26V470Z"/><path class="cls-3" d="M621.23,483.2H619V464.45h2.26Z"/><path class="cls-3" d="M635.5,483.2a4.65,4.65,0,0,1-.32-1.39,5,5,0,0,1-3.76,1.64,4.63,4.63,0,0,1-3.2-1.11,3.54,3.54,0,0,1-1.25-2.8,3.72,3.72,0,0,1,1.57-3.2A7.37,7.37,0,0,1,633,475.2h2.2v-1a2.56,2.56,0,0,0-.71-1.89,2.84,2.84,0,0,0-2.09-.7,3.31,3.31,0,0,0-2,.61,1.81,1.81,0,0,0-.81,1.48h-2.27a3.09,3.09,0,0,1,.7-1.91,4.77,4.77,0,0,1,1.9-1.46,6.36,6.36,0,0,1,2.64-.54,5.22,5.22,0,0,1,3.58,1.14A4.12,4.12,0,0,1,637.4,474v6.08a7.41,7.41,0,0,0,.47,2.89v.19Zm-6.7-16.74a1.33,1.33,0,0,1,.33-.92,1.29,1.29,0,1,1,0,1.84A1.31,1.31,0,0,1,628.8,466.46Zm3,15a4,4,0,0,0,2-.55,3.33,3.33,0,0,0,1.38-1.43v-2.7h-1.77q-4.15,0-4.15,2.42a2,2,0,0,0,.7,1.66A2.73,2.73,0,0,0,631.75,481.48Zm2.3-15a1.4,1.4,0,0,1,.33-.94,1.51,1.51,0,0,1,2,0,1.36,1.36,0,0,1,.34.94,1.4,1.4,0,0,1-2.34.92A1.35,1.35,0,0,1,634.05,466.49Z"/><path class="cls-3" d="M645.58,470l.07,1.66a4.82,4.82,0,0,1,4-1.91q4.18,0,4.22,4.73v8.72h-2.25v-8.74a3,3,0,0,0-.66-2.11,2.62,2.62,0,0,0-2-.68,3.24,3.24,0,0,0-1.93.58,4.05,4.05,0,0,0-1.3,1.54v9.41h-2.25V470Z"/><path class="cls-3" d="M659.2,476.49a7.75,7.75,0,0,1,1.43-4.91,4.92,4.92,0,0,1,7.56-.12l.11-1.46h2.06v12.89a5.39,5.39,0,0,1-1.52,4,5.63,5.63,0,0,1-4.08,1.47,6.73,6.73,0,0,1-2.8-.61,4.76,4.76,0,0,1-2.09-1.67l1.18-1.35a4.41,4.41,0,0,0,3.55,1.79,3.46,3.46,0,0,0,2.57-.93,3.56,3.56,0,0,0,.92-2.61v-1.13a4.66,4.66,0,0,1-3.7,1.56,4.48,4.48,0,0,1-3.75-1.87A8.12,8.12,0,0,1,659.2,476.49Zm2.27.26a5.92,5.92,0,0,0,.92,3.51,3,3,0,0,0,2.56,1.27,3.31,3.31,0,0,0,3.14-1.94v-6a3.35,3.35,0,0,0-3.12-1.89A3,3,0,0,0,662.4,473,6.43,6.43,0,0,0,661.47,476.75Z"/><path class="cls-3" d="M681.74,483.45a5.73,5.73,0,0,1-4.36-1.77,6.49,6.49,0,0,1-1.69-4.71v-.42a7.94,7.94,0,0,1,.75-3.51,5.81,5.81,0,0,1,2.1-2.41,5.21,5.21,0,0,1,2.92-.88,5,5,0,0,1,4,1.7,7.36,7.36,0,0,1,1.43,4.86v.94H678a4.66,4.66,0,0,0,1.14,3.15,3.59,3.59,0,0,0,2.78,1.2,4,4,0,0,0,2-.48,5.14,5.14,0,0,0,1.46-1.3l1.37,1.08A5.53,5.53,0,0,1,681.74,483.45Zm-.28-11.84a3,3,0,0,0-2.29,1,4.89,4.89,0,0,0-1.15,2.79h6.62v-.17a4.35,4.35,0,0,0-.93-2.67A2.83,2.83,0,0,0,681.46,471.61Z"/><path class="cls-2" d="M182.76,424.92H156l-6,16.74h-8.7l24.43-64h7.39l24.47,64h-8.65ZM158.5,418h21.75l-10.9-29.93Z"/><path class="cls-3" d="M482.47,442.11a14.3,14.3,0,0,1-10.82-4.37q-4.17-4.37-4.17-11.68v-1a19.6,19.6,0,0,1,1.86-8.69,14.47,14.47,0,0,1,5.19-6,13.09,13.09,0,0,1,7.24-2.16q6.39,0,9.92,4.2t3.54,12v2.33H473.07a11.63,11.63,0,0,0,2.82,7.81,8.89,8.89,0,0,0,6.88,3,9.7,9.7,0,0,0,5-1.21,12.55,12.55,0,0,0,3.6-3.2l3.41,2.66Q490.69,442.11,482.47,442.11Zm-.7-29.32a7.47,7.47,0,0,0-5.68,2.46,12,12,0,0,0-2.84,6.91h16.38v-.43a10.63,10.63,0,0,0-2.29-6.6A7,7,0,0,0,481.77,412.79Z"/><path class="cls-3" d="M515.43,437.54a8,8,0,0,0,5.23-1.81,6.38,6.38,0,0,0,2.48-4.54h5.29a10.09,10.09,0,0,1-1.93,5.35,12.65,12.65,0,0,1-4.76,4,13.75,13.75,0,0,1-6.31,1.52,13.48,13.48,0,0,1-10.62-4.46q-3.94-4.45-3.95-12.2v-.94a19.67,19.67,0,0,1,1.76-8.49,13.31,13.31,0,0,1,5-5.77,14.3,14.3,0,0,1,7.75-2.06,13.12,13.12,0,0,1,9.15,3.3,11.73,11.73,0,0,1,3.88,8.55h-5.29a7.68,7.68,0,0,0-2.4-5.21,7.44,7.44,0,0,0-5.34-2,7.83,7.83,0,0,0-6.6,3.06q-2.34,3.07-2.34,8.88v1q0,5.66,2.32,8.71A7.88,7.88,0,0,0,515.43,437.54Z"/><path class="cls-3" d="M551.15,413.81a17,17,0,0,0-2.75-.21q-5.5,0-7.47,4.69V441.5h-5.59V408.79h5.44l.09,3.78a8.7,8.7,0,0,1,7.8-4.38,5.77,5.77,0,0,1,2.48.42Z"/><path class="cls-3" d="M577.1,438.27q-3.27,3.84-9.59,3.84c-3.48,0-6.14-1-8-3s-2.75-5-2.77-9V408.79h5.6v21.13q0,7.44,6,7.44,6.41,0,8.53-4.77v-23.8h5.59V441.5h-5.32Z"/><path class="cls-3" d="M591.68,400.12a3.37,3.37,0,0,1,.83-2.3,3.16,3.16,0,0,1,2.47-.94,3.2,3.2,0,0,1,2.48.94,3.33,3.33,0,0,1,.84,2.3,3.47,3.47,0,0,1-5.79,2.27A3.26,3.26,0,0,1,591.68,400.12Zm6.05,41.38h-5.59V408.79h5.59Z"/><path class="cls-3" d="M614.88,400.88v7.91H621v4.33h-6.11v20.31a4.51,4.51,0,0,0,.82,2.95,3.44,3.44,0,0,0,2.78,1,13.7,13.7,0,0,0,2.66-.36v4.51a16.31,16.31,0,0,1-4.29.6,7,7,0,0,1-5.66-2.27,9.74,9.74,0,0,1-1.9-6.44V413.12h-5.95v-4.33h5.95v-7.91Z"/><path class="cls-3" d="M628.17,400.12a3.32,3.32,0,0,1,.83-2.3,3.12,3.12,0,0,1,2.46-.94,3.18,3.18,0,0,1,2.48.94,3.34,3.34,0,0,1,.85,2.3,3,3,0,0,1-3.33,3.17,3.17,3.17,0,0,1-2.46-.9A3.21,3.21,0,0,1,628.17,400.12Zm6,41.38h-5.59V408.79h5.59Z"/><path class="cls-3" d="M649.07,408.79l.18,4.12a11.9,11.9,0,0,1,9.79-4.72q10.38,0,10.46,11.7V441.5h-5.59V419.86q0-3.54-1.62-5.23c-1.06-1.13-2.7-1.69-4.94-1.69a8.07,8.07,0,0,0-4.78,1.45,9.77,9.77,0,0,0-3.2,3.81v23.3h-5.59V408.79Z"/><path class="cls-3" d="M677.23,424.88q0-7.65,3.53-12.17a12.19,12.19,0,0,1,18.71-.29l.28-3.63h5.1v31.93q0,6.34-3.76,10T691,454.38a16.74,16.74,0,0,1-6.92-1.51,12,12,0,0,1-5.17-4.14l2.9-3.36a10.94,10.94,0,0,0,8.8,4.44,8.56,8.56,0,0,0,6.36-2.29,8.79,8.79,0,0,0,2.28-6.47v-2.81a11.5,11.5,0,0,1-9.16,3.87,11.16,11.16,0,0,1-9.29-4.63Q677.22,432.86,677.23,424.88Zm5.62.63c0,3.69.75,6.59,2.27,8.69a7.34,7.34,0,0,0,6.34,3.16,8.18,8.18,0,0,0,7.77-4.81V417.62a8.28,8.28,0,0,0-7.71-4.68,7.43,7.43,0,0,0-6.38,3.17Q682.85,419.29,682.85,425.51Z"/><path class="cls-3" d="M439.15,417.31H425v24.44h-8V381.32h20q10.21,0,15.71,4.65t5.5,13.53a16.3,16.3,0,0,1-3.05,9.84,18.35,18.35,0,0,1-8.49,6.27l14.19,25.64v.5h-8.55ZM425,410.79H437.2q5.93,0,9.44-3.08a10.39,10.39,0,0,0,3.51-8.23c0-3.74-1.12-6.61-3.34-8.6s-5.45-3-9.65-3H425Z"/></g></svg>