<svg xmlns="http://www.w3.org/2000/svg" viewBox="0 0 850.39 850.39"><defs><style>.cls-1{fill:none;stroke:#92c466;stroke-miterlimit:10;stroke-width:2px;}.cls-2{fill:#92c466;}.cls-3{fill:#c51617;}.cls-4{fill:#2a4b9b;}</style></defs><title>20.06.10 Yuri Antenna 5</title><g id="Text"><path class="cls-1" d="M223.29,399c-50.23.35-67.23-23.85-51.21-73.12Z"/><polygon class="cls-1" points="191.02 352.43 222.16 345.99 205.9 373.67 198.08 362.5 191.02 352.43"/><line class="cls-1" x1="222.17" y1="345.99" x2="197.59" y2="362.89"/><path class="cls-1" d="M233.69,319q17.79,6.5,18.31,25.13"/><path class="cls-1" d="M232,327.16q11.23,4.74,11.64,15.77"/><path class="cls-1" d="M230.37,334.28q6,2.69,6.22,8.53"/><line class="cls-1" x1="219.77" y1="340.78" x2="226.44" y2="349.91"/><path class="cls-2" d="M209.07,417.92l.18,4.11a11.92,11.92,0,0,1,9.8-4.72q10.37,0,10.46,11.7v21.61h-5.6V429c0-2.36-.55-4.1-1.61-5.23s-2.71-1.69-4.94-1.69a8,8,0,0,0-4.78,1.45,9.94,9.94,0,0,0-3.21,3.81v23.3h-5.59v-32.7Z"/><path class="cls-2" d="M246.15,410v7.92h6.1v4.32h-6.1v20.31a4.57,4.57,0,0,0,.81,2.95,3.43,3.43,0,0,0,2.78,1,13.51,13.51,0,0,0,2.66-.36v4.51a16.31,16.31,0,0,1-4.29.6,7,7,0,0,1-5.65-2.27,9.74,9.74,0,0,1-1.91-6.44V422.24h-6v-4.32h6V410Z"/><path class="cls-2" d="M273,451.23a14.3,14.3,0,0,1-10.82-4.37Q258,442.5,258,435.18v-1a19.63,19.63,0,0,1,1.86-8.69,14.49,14.49,0,0,1,5.2-6,13.09,13.09,0,0,1,7.24-2.16q6.38,0,9.91,4.2t3.54,12v2.33H263.57a11.66,11.66,0,0,0,2.83,7.82,8.9,8.9,0,0,0,6.88,3,9.68,9.68,0,0,0,5-1.21,12.55,12.55,0,0,0,3.6-3.2l3.42,2.66Q281.2,451.23,273,451.23Zm-.69-29.32a7.45,7.45,0,0,0-5.68,2.46,12,12,0,0,0-2.85,6.91h16.39v-.43a10.63,10.63,0,0,0-2.3-6.6A7,7,0,0,0,272.28,421.91Z"/><path class="cls-2" d="M298.11,417.92l.18,4.11a11.9,11.9,0,0,1,9.79-4.72q10.38,0,10.46,11.7v21.61H313V429q0-3.54-1.62-5.23t-4.94-1.69a8,8,0,0,0-4.77,1.45,9.94,9.94,0,0,0-3.21,3.81v23.3h-5.59v-32.7Z"/><path class="cls-2" d="M332.89,417.92l.18,4.11a11.9,11.9,0,0,1,9.79-4.72q10.36,0,10.46,11.7v21.61h-5.59V429q0-3.54-1.62-5.23c-1.06-1.13-2.7-1.69-4.94-1.69a8.07,8.07,0,0,0-4.78,1.45,9.83,9.83,0,0,0-3.2,3.81v23.3H327.6v-32.7Z"/><path class="cls-2" d="M382.57,450.62a11.36,11.36,0,0,1-.79-3.44,12.47,12.47,0,0,1-9.31,4.05,11.5,11.5,0,0,1-7.93-2.74,8.82,8.82,0,0,1-3.1-6.93,9.24,9.24,0,0,1,3.88-7.94q3.89-2.82,10.93-2.83h5.44v-2.57a6.32,6.32,0,0,0-1.75-4.67,7.1,7.1,0,0,0-5.17-1.73,8.13,8.13,0,0,0-5,1.51,4.45,4.45,0,0,0-2,3.66H362.1a7.74,7.74,0,0,1,1.74-4.74,11.89,11.89,0,0,1,4.72-3.61,15.93,15.93,0,0,1,6.54-1.33q5.65,0,8.86,2.83a10.2,10.2,0,0,1,3.32,7.78V443a18.3,18.3,0,0,0,1.15,7.16v.48Zm-9.28-4.26a9.77,9.77,0,0,0,5-1.36,8.19,8.19,0,0,0,3.42-3.54v-6.71h-4.38q-10.29,0-10.28,6a5.09,5.09,0,0,0,1.75,4.11A6.73,6.73,0,0,0,373.29,446.36Z"/><path class="cls-3" d="M279.32,482.9l.34,2.35.5-2.11,3.52-12.41h2l3.43,12.41.49,2.14.38-2.39,2.76-12.16h2.35l-4.3,17.78h-2.14L285,475.56l-.28-1.36-.28,1.36-3.8,12.95h-2.14l-4.29-17.78h2.34Z"/><path class="cls-3" d="M302.86,488.75a5.8,5.8,0,0,1-4.37-1.76,6.57,6.57,0,0,1-1.68-4.72v-.42a7.94,7.94,0,0,1,.75-3.51,5.88,5.88,0,0,1,2.1-2.41,5.29,5.29,0,0,1,2.92-.88,5,5,0,0,1,4,1.7,7.36,7.36,0,0,1,1.42,4.86v.94h-8.94a4.66,4.66,0,0,0,1.14,3.15,3.56,3.56,0,0,0,2.78,1.21,4,4,0,0,0,2-.49,5.22,5.22,0,0,0,1.45-1.29l1.38,1.07A5.53,5.53,0,0,1,302.86,488.75Zm-.28-11.84a3,3,0,0,0-2.29,1,4.83,4.83,0,0,0-1.15,2.78h6.62v-.17a4.35,4.35,0,0,0-.93-2.66A2.85,2.85,0,0,0,302.58,476.91Z"/><path class="cls-3" d="M320.17,488.51h-2.26V469.76h2.26Z"/><path class="cls-3" d="M323.63,481.78a7.78,7.78,0,0,1,.77-3.49,5.61,5.61,0,0,1,2.12-2.39,5.72,5.72,0,0,1,3.11-.85,5.58,5.58,0,0,1,4.36,1.87,7.2,7.2,0,0,1,1.67,5v.16a7.91,7.91,0,0,1-.74,3.46,5.64,5.64,0,0,1-2.11,2.39,5.86,5.86,0,0,1-3.16.85,5.54,5.54,0,0,1-4.35-1.87,7.14,7.14,0,0,1-1.67-4.94Zm2.27.27a5.67,5.67,0,0,0,1,3.53,3.46,3.46,0,0,0,5.47,0,6.22,6.22,0,0,0,1-3.78,5.68,5.68,0,0,0-1-3.52,3.28,3.28,0,0,0-2.74-1.35,3.23,3.23,0,0,0-2.7,1.33A6.17,6.17,0,0,0,325.9,482.05Z"/><path class="cls-3" d="M344.24,486.91a3.25,3.25,0,0,0,2.11-.74,2.53,2.53,0,0,0,1-1.83h2.14a4,4,0,0,1-.79,2.16,5.13,5.13,0,0,1-1.92,1.64,5.5,5.5,0,0,1-2.54.61A5.44,5.44,0,0,1,340,487a7.13,7.13,0,0,1-1.6-4.93v-.37a8,8,0,0,1,.71-3.43,5.46,5.46,0,0,1,2-2.34,5.83,5.83,0,0,1,3.13-.83,5.29,5.29,0,0,1,3.7,1.34,4.75,4.75,0,0,1,1.57,3.45h-2.14a3.12,3.12,0,0,0-1-2.11,3,3,0,0,0-2.16-.82,3.15,3.15,0,0,0-2.66,1.24,5.83,5.83,0,0,0-.95,3.58v.43a5.66,5.66,0,0,0,.94,3.51A3.17,3.17,0,0,0,344.24,486.91Z"/><path class="cls-3" d="M360.63,488.51a4.73,4.73,0,0,1-.32-1.39,5,5,0,0,1-3.76,1.63,4.68,4.68,0,0,1-3.2-1.1,3.56,3.56,0,0,1-1.25-2.81,3.72,3.72,0,0,1,1.57-3.2,7.37,7.37,0,0,1,4.41-1.14h2.2v-1a2.52,2.52,0,0,0-.71-1.88,2.84,2.84,0,0,0-2.09-.71,3.35,3.35,0,0,0-2,.61,1.81,1.81,0,0,0-.81,1.48h-2.27a3.09,3.09,0,0,1,.7-1.91,4.86,4.86,0,0,1,1.9-1.46,6.36,6.36,0,0,1,2.64-.54,5.22,5.22,0,0,1,3.58,1.15,4.1,4.1,0,0,1,1.34,3.14v6.08a7.38,7.38,0,0,0,.47,2.89v.2Zm-3.75-1.72a4.06,4.06,0,0,0,2-.55,3.44,3.44,0,0,0,1.38-1.43V482.1h-1.77q-4.15,0-4.15,2.43a2.06,2.06,0,0,0,.7,1.66A2.73,2.73,0,0,0,356.88,486.79Z"/><path class="cls-3" d="M369.59,472.1v3.2h2.46V477h-2.46v8.21a1.84,1.84,0,0,0,.33,1.19,1.39,1.39,0,0,0,1.12.39,5.28,5.28,0,0,0,1.08-.14v1.82a6.74,6.74,0,0,1-1.74.24,2.78,2.78,0,0,1-2.28-.92,3.91,3.91,0,0,1-.77-2.59V477h-2.4V475.3h2.4v-3.2Z"/><path class="cls-3" d="M380.62,488.75a5.79,5.79,0,0,1-4.37-1.76,6.57,6.57,0,0,1-1.68-4.72v-.42a7.94,7.94,0,0,1,.75-3.51,5.88,5.88,0,0,1,2.1-2.41,5.29,5.29,0,0,1,2.92-.88,4.94,4.94,0,0,1,4,1.7,7.3,7.3,0,0,1,1.43,4.86v.94h-8.94A4.66,4.66,0,0,0,378,485.7a3.54,3.54,0,0,0,2.77,1.21,4,4,0,0,0,2-.49,5.22,5.22,0,0,0,1.45-1.29l1.38,1.07A5.54,5.54,0,0,1,380.62,488.75Zm-.28-11.84a3,3,0,0,0-2.29,1,4.76,4.76,0,0,0-1.15,2.78h6.61v-.17a4.28,4.28,0,0,0-.92-2.66A2.85,2.85,0,0,0,380.34,476.91Z"/><path class="cls-3" d="M395,483.73a4.19,4.19,0,0,1,.71-2.35,10.91,10.91,0,0,1,2.73-2.5,12.35,12.35,0,0,1-1.59-2.32,4.32,4.32,0,0,1-.4-1.75,4.17,4.17,0,0,1,1.2-3.17,4.47,4.47,0,0,1,3.24-1.15,4.38,4.38,0,0,1,3,1.07,3.45,3.45,0,0,1,1.2,2.69,3.8,3.8,0,0,1-.54,2,7.08,7.08,0,0,1-1.9,1.91l-1.31,1,4,4.72a7.53,7.53,0,0,0,.83-3.53h2a8.53,8.53,0,0,1-1.5,5.17l2.54,3h-2.71l-1.18-1.41a6.12,6.12,0,0,1-2.12,1.23,7.5,7.5,0,0,1-2.47.42,6.11,6.11,0,0,1-4.18-1.38A4.6,4.6,0,0,1,395,483.73Zm5.75,3.18a4.76,4.76,0,0,0,3.28-1.37l-4.33-5.19-.41.3c-1.35,1-2,2-2,3.08a3,3,0,0,0,.93,2.31A3.61,3.61,0,0,0,400.75,486.91Zm-2-12.17a5.15,5.15,0,0,0,1.44,2.93l1.44-1a4,4,0,0,0,1.14-1.11,2.62,2.62,0,0,0,.3-1.29,1.72,1.72,0,0,0-.61-1.36,2.25,2.25,0,0,0-1.54-.55,2,2,0,0,0-1.59.68A2.54,2.54,0,0,0,398.71,474.74Z"/><path class="cls-3" d="M424.49,477.33a6.4,6.4,0,0,0-1.11-.09,3,3,0,0,0-3,1.89v9.38H418.1V475.3h2.2l0,1.53a3.51,3.51,0,0,1,3.15-1.78,2.2,2.2,0,0,1,1,.18Z"/><path class="cls-3" d="M432.06,488.75a5.8,5.8,0,0,1-4.37-1.76,6.57,6.57,0,0,1-1.68-4.72v-.42a7.94,7.94,0,0,1,.75-3.51,5.88,5.88,0,0,1,2.1-2.41,5.29,5.29,0,0,1,2.92-.88,5,5,0,0,1,4,1.7,7.36,7.36,0,0,1,1.42,4.86v.94h-8.94a4.66,4.66,0,0,0,1.14,3.15,3.54,3.54,0,0,0,2.77,1.21,4,4,0,0,0,2-.49,5.22,5.22,0,0,0,1.45-1.29L437,486.2A5.53,5.53,0,0,1,432.06,488.75Zm-.28-11.84a3,3,0,0,0-2.29,1,4.83,4.83,0,0,0-1.15,2.78H435v-.17a4.28,4.28,0,0,0-.92-2.66A2.85,2.85,0,0,0,431.78,476.91Z"/><path class="cls-3" d="M442.53,488.51h-2.26V469.76h2.26Z"/><path class="cls-3" d="M445.79,481.78a7.78,7.78,0,0,1,.77-3.49,5.61,5.61,0,0,1,2.12-2.39,5.72,5.72,0,0,1,3.11-.85,5.58,5.58,0,0,1,4.36,1.87,7.2,7.2,0,0,1,1.67,5v.16a7.91,7.91,0,0,1-.74,3.46A5.64,5.64,0,0,1,455,487.9a5.86,5.86,0,0,1-3.16.85,5.54,5.54,0,0,1-4.35-1.87,7.14,7.14,0,0,1-1.67-4.94Zm2.27.27a5.67,5.67,0,0,0,1,3.53,3.46,3.46,0,0,0,5.47,0,6.22,6.22,0,0,0,1-3.78,5.68,5.68,0,0,0-1-3.52,3.28,3.28,0,0,0-2.74-1.35,3.23,3.23,0,0,0-2.7,1.33A6.17,6.17,0,0,0,448.06,482.05Z"/><path class="cls-3" d="M466.2,486.91a3.25,3.25,0,0,0,2.11-.74,2.53,2.53,0,0,0,1-1.83h2.14a4,4,0,0,1-.79,2.16,5.13,5.13,0,0,1-1.92,1.64,5.5,5.5,0,0,1-2.54.61,5.44,5.44,0,0,1-4.29-1.8,7.13,7.13,0,0,1-1.6-4.93v-.37a8,8,0,0,1,.71-3.43,5.46,5.46,0,0,1,2-2.34,5.83,5.83,0,0,1,3.13-.83,5.29,5.29,0,0,1,3.7,1.34,4.75,4.75,0,0,1,1.57,3.45h-2.14a3.12,3.12,0,0,0-1-2.11,3,3,0,0,0-2.16-.82,3.15,3.15,0,0,0-2.66,1.24,5.83,5.83,0,0,0-.95,3.58v.43a5.66,5.66,0,0,0,.94,3.51A3.17,3.17,0,0,0,466.2,486.91Z"/><path class="cls-3" d="M482.39,488.51a4.73,4.73,0,0,1-.32-1.39,5,5,0,0,1-3.76,1.63,4.68,4.68,0,0,1-3.2-1.1,3.56,3.56,0,0,1-1.25-2.81,3.72,3.72,0,0,1,1.57-3.2,7.37,7.37,0,0,1,4.41-1.14H482v-1a2.52,2.52,0,0,0-.71-1.88,2.84,2.84,0,0,0-2.09-.71,3.35,3.35,0,0,0-2,.61,1.81,1.81,0,0,0-.81,1.48h-2.27a3.09,3.09,0,0,1,.7-1.91,4.79,4.79,0,0,1,1.9-1.46,6.36,6.36,0,0,1,2.64-.54A5.22,5.22,0,0,1,483,476.2a4.1,4.1,0,0,1,1.34,3.14v6.08a7.38,7.38,0,0,0,.47,2.89v.2Zm-3.75-1.72a4.06,4.06,0,0,0,2-.55,3.44,3.44,0,0,0,1.38-1.43V482.1h-1.77q-4.15,0-4.15,2.43a2.06,2.06,0,0,0,.7,1.66A2.72,2.72,0,0,0,478.64,486.79Z"/><path class="cls-3" d="M491.15,472.1v3.2h2.46V477h-2.46v8.21a1.84,1.84,0,0,0,.33,1.19,1.39,1.39,0,0,0,1.12.39,5.12,5.12,0,0,0,1.07-.14v1.82a6.61,6.61,0,0,1-1.73.24,2.78,2.78,0,0,1-2.28-.92,3.91,3.91,0,0,1-.77-2.59V477h-2.41V475.3h2.41v-3.2Z"/><path class="cls-3" d="M502,488.75a5.8,5.8,0,0,1-4.37-1.76,6.57,6.57,0,0,1-1.68-4.72v-.42a7.94,7.94,0,0,1,.75-3.51,5.88,5.88,0,0,1,2.1-2.41,5.29,5.29,0,0,1,2.92-.88,4.94,4.94,0,0,1,4,1.7,7.3,7.3,0,0,1,1.43,4.86v.94h-8.94a4.66,4.66,0,0,0,1.14,3.15,3.54,3.54,0,0,0,2.77,1.21,4,4,0,0,0,2-.49,5.22,5.22,0,0,0,1.45-1.29L507,486.2A5.53,5.53,0,0,1,502,488.75Zm-.28-11.84a3,3,0,0,0-2.29,1,4.83,4.83,0,0,0-1.15,2.78h6.61v-.17a4.28,4.28,0,0,0-.92-2.66A2.85,2.85,0,0,0,501.7,476.91Z"/><path class="cls-3" d="M519.5,472.1v3.2H522V477H519.5v8.21a1.84,1.84,0,0,0,.33,1.19,1.39,1.39,0,0,0,1.12.39,5.28,5.28,0,0,0,1.08-.14v1.82a6.74,6.74,0,0,1-1.74.24,2.78,2.78,0,0,1-2.28-.92,3.91,3.91,0,0,1-.77-2.59V477h-2.41V475.3h2.41v-3.2Z"/><path class="cls-3" d="M533,488.51a4.8,4.8,0,0,1-.31-1.39,5,5,0,0,1-3.76,1.63,4.72,4.72,0,0,1-3.21-1.1,3.6,3.6,0,0,1-1.25-2.81,3.75,3.75,0,0,1,1.57-3.2,7.41,7.41,0,0,1,4.41-1.14h2.2v-1a2.52,2.52,0,0,0-.71-1.88,2.82,2.82,0,0,0-2.08-.71,3.33,3.33,0,0,0-2,.61A1.8,1.8,0,0,0,527,479h-2.27a3.09,3.09,0,0,1,.7-1.91,4.83,4.83,0,0,1,1.91-1.46,6.36,6.36,0,0,1,2.64-.54,5.25,5.25,0,0,1,3.58,1.15,4.1,4.1,0,0,1,1.34,3.14v6.08a7.4,7.4,0,0,0,.46,2.89v.2Zm-3.74-1.72a4,4,0,0,0,2-.55,3.32,3.32,0,0,0,1.38-1.43V482.1h-1.77q-4.15,0-4.15,2.43a2.06,2.06,0,0,0,.71,1.66A2.72,2.72,0,0,0,529.26,486.79Z"/><path class="cls-3" d="M541.15,488.51h-2.26V469.76h2.26Z"/><path class="cls-3" d="M550.5,488.75a5.79,5.79,0,0,1-4.37-1.76,6.53,6.53,0,0,1-1.69-4.72v-.42a7.94,7.94,0,0,1,.75-3.51,5.88,5.88,0,0,1,2.1-2.41,5.32,5.32,0,0,1,2.93-.88,5,5,0,0,1,4,1.7,7.36,7.36,0,0,1,1.43,4.86v.94H546.7a4.66,4.66,0,0,0,1.14,3.15,3.58,3.58,0,0,0,2.78,1.21,4,4,0,0,0,2-.49,5.37,5.37,0,0,0,1.45-1.29l1.38,1.07A5.55,5.55,0,0,1,550.5,488.75Zm-.28-11.84a3,3,0,0,0-2.3,1,4.83,4.83,0,0,0-1.15,2.78h6.62v-.17a4.23,4.23,0,0,0-.93-2.66A2.83,2.83,0,0,0,550.22,476.91Z"/><path class="cls-3" d="M560.65,475.3l.07,1.66a4.82,4.82,0,0,1,3.95-1.91c2.8,0,4.2,1.58,4.23,4.73v8.73h-2.26v-8.74a3.06,3.06,0,0,0-.65-2.11,2.61,2.61,0,0,0-2-.69,3.29,3.29,0,0,0-1.93.59,4,4,0,0,0-1.29,1.53v9.42h-2.26V475.3Z"/><path class="cls-3" d="M575.62,472.1v3.2h2.46V477h-2.46v8.21a1.84,1.84,0,0,0,.33,1.19,1.39,1.39,0,0,0,1.12.39,5.28,5.28,0,0,0,1.08-.14v1.82a6.74,6.74,0,0,1-1.74.24,2.78,2.78,0,0,1-2.28-.92,3.91,3.91,0,0,1-.77-2.59V477H571V475.3h2.41v-3.2Z"/><path class="cls-3" d="M588.66,485a1.66,1.66,0,0,0-.69-1.42,6.52,6.52,0,0,0-2.4-.87,11.57,11.57,0,0,1-2.72-.88,3.8,3.8,0,0,1-1.49-1.22,2.86,2.86,0,0,1-.49-1.69,3.41,3.41,0,0,1,1.38-2.74,5.34,5.34,0,0,1,3.51-1.13,5.54,5.54,0,0,1,3.64,1.16,3.71,3.71,0,0,1,1.4,3h-2.27a2,2,0,0,0-.79-1.6,2.93,2.93,0,0,0-2-.67,3.06,3.06,0,0,0-1.93.54,1.67,1.67,0,0,0-.7,1.4,1.36,1.36,0,0,0,.65,1.23,8,8,0,0,0,2.34.8,12.19,12.19,0,0,1,2.74.9,3.93,3.93,0,0,1,1.55,1.26,3.12,3.12,0,0,1,.51,1.8,3.37,3.37,0,0,1-1.42,2.84,5.86,5.86,0,0,1-3.67,1.07,6.74,6.74,0,0,1-2.81-.56,4.57,4.57,0,0,1-1.91-1.57,3.78,3.78,0,0,1-.69-2.18h2.26a2.31,2.31,0,0,0,.91,1.8,3.5,3.5,0,0,0,2.24.67,3.64,3.64,0,0,0,2.06-.52A1.61,1.61,0,0,0,588.66,485Z"/><path class="cls-2" d="M183.36,434.12H156.55l-6,16.74h-8.7l24.44-64h7.38l24.47,64h-8.65Zm-24.26-6.9h21.76L170,397.29Z"/><path class="cls-4" d="M483.07,451.31a14.3,14.3,0,0,1-10.82-4.37q-4.17-4.37-4.17-11.68v-1a19.63,19.63,0,0,1,1.86-8.69,14.49,14.49,0,0,1,5.2-6,13.06,13.06,0,0,1,7.24-2.16q6.38,0,9.91,4.2t3.54,12V436H473.67a11.61,11.61,0,0,0,2.83,7.82,8.88,8.88,0,0,0,6.87,3,9.7,9.7,0,0,0,5-1.21,12.55,12.55,0,0,0,3.6-3.2l3.42,2.66Q491.29,451.3,483.07,451.31ZM482.38,422a7.45,7.45,0,0,0-5.68,2.46,12,12,0,0,0-2.85,6.91h16.39v-.43a10.63,10.63,0,0,0-2.3-6.6A7,7,0,0,0,482.38,422Z"/><path class="cls-4" d="M516,446.74a8.08,8.08,0,0,0,5.23-1.81,6.42,6.42,0,0,0,2.48-4.53H529a10.25,10.25,0,0,1-1.94,5.35,12.83,12.83,0,0,1-4.76,4.05,13.86,13.86,0,0,1-6.3,1.51,13.48,13.48,0,0,1-10.63-4.46q-3.95-4.46-3.94-12.2v-.93a19.69,19.69,0,0,1,1.75-8.5,13.38,13.38,0,0,1,5-5.77,14.32,14.32,0,0,1,7.76-2.06,13.11,13.11,0,0,1,9.14,3.3,11.8,11.8,0,0,1,3.89,8.55h-5.29a7.76,7.76,0,0,0-2.41-5.21,7.47,7.47,0,0,0-5.33-2,7.81,7.81,0,0,0-6.61,3.07q-2.34,3.06-2.34,8.87V435c0,3.76.77,6.67,2.33,8.7A7.84,7.84,0,0,0,516,446.74Z"/><path class="cls-4" d="M551.75,423a16.88,16.88,0,0,0-2.75-.21q-5.5,0-7.47,4.69V450.7h-5.59V418h5.44l.09,3.77a8.72,8.72,0,0,1,7.8-4.38,5.57,5.57,0,0,1,2.48.43Z"/><path class="cls-4" d="M577.7,447.47q-3.27,3.84-9.58,3.84c-3.49,0-6.14-1-8-3s-2.74-5-2.76-9V418H563v21.13q0,7.42,6,7.43,6.4,0,8.52-4.77V418h5.59v32.7h-5.32Z"/><path class="cls-4" d="M592.29,409.32a3.32,3.32,0,0,1,.83-2.3,3.12,3.12,0,0,1,2.46-.93,3.18,3.18,0,0,1,2.48.93,3.34,3.34,0,0,1,.85,2.3,3,3,0,0,1-3.33,3.17,3.17,3.17,0,0,1-2.46-.9A3.21,3.21,0,0,1,592.29,409.32Zm6,41.38h-5.59V418h5.59Z"/><path class="cls-4" d="M615.49,410.08V418h6.1v4.32h-6.1v20.31a4.57,4.57,0,0,0,.81,2.95,3.43,3.43,0,0,0,2.78,1,13.6,13.6,0,0,0,2.66-.36v4.51a16.31,16.31,0,0,1-4.29.6A7,7,0,0,1,611.8,449a9.74,9.74,0,0,1-1.91-6.44V422.32h-5.95V418h5.95v-7.92Z"/><path class="cls-4" d="M628.77,409.32a3.37,3.37,0,0,1,.83-2.3,3.75,3.75,0,0,1,4.94,0,3.29,3.29,0,0,1,.85,2.3,3.18,3.18,0,0,1-.85,2.27,3.23,3.23,0,0,1-2.48.9,3.2,3.2,0,0,1-2.46-.9A3.26,3.26,0,0,1,628.77,409.32Zm6.05,41.38h-5.6V418h5.6Z"/><path class="cls-4" d="M649.67,418l.18,4.11a11.92,11.92,0,0,1,9.8-4.72q10.36,0,10.46,11.7V450.7h-5.6V429.06q0-3.54-1.61-5.23T658,422.14a8,8,0,0,0-4.77,1.45A9.94,9.94,0,0,0,650,427.4v23.3h-5.59V418Z"/><path class="cls-4" d="M677.83,434.08q0-7.65,3.54-12.17a12.19,12.19,0,0,1,18.71-.29l.27-3.62h5.11v31.92q0,6.34-3.77,10t-10.11,3.66a16.77,16.77,0,0,1-6.92-1.51,12,12,0,0,1-5.17-4.14l2.9-3.36a10.92,10.92,0,0,0,8.8,4.45,8.57,8.57,0,0,0,6.36-2.3,8.79,8.79,0,0,0,2.28-6.47v-2.81a11.48,11.48,0,0,1-9.15,3.87,11.17,11.17,0,0,1-9.3-4.63Q677.83,442.06,677.83,434.08Zm5.62.63q0,5.54,2.27,8.69a7.36,7.36,0,0,0,6.35,3.16,8.18,8.18,0,0,0,7.76-4.8V426.82a8.28,8.28,0,0,0-7.7-4.68,7.45,7.45,0,0,0-6.38,3.17Q683.46,428.49,683.45,434.71Z"/><path class="cls-4" d="M439.75,426.54h-14.2V451h-8V390.55h20q10.2,0,15.7,4.65t5.5,13.53a16.25,16.25,0,0,1-3.05,9.84,18.19,18.19,0,0,1-8.48,6.26l14.19,25.65v.5h-8.55ZM425.55,420h12.24q5.94,0,9.45-3.08a10.38,10.38,0,0,0,3.5-8.23q0-5.61-3.34-8.61t-9.65-3h-12.2Z"/></g></svg>