<svg xmlns="http://www.w3.org/2000/svg" viewBox="0 0 850.39 850.39"><defs><style>.cls-1{fill:none;stroke:#92c466;stroke-miterlimit:10;stroke-width:2px;}.cls-2{fill:#92c466;}.cls-3{fill:#2a4b9b;}</style></defs><title>20.06.10 Yuri Antenna 5</title><g id="Text"><path class="cls-1" d="M230.1,384.89c-50.23.36-67.24-23.84-51.21-73.11Z"/><polygon class="cls-1" points="197.83 338.38 228.97 331.94 212.71 359.62 204.88 348.45 197.83 338.38"/><line class="cls-1" x1="228.97" y1="331.94" x2="204.4" y2="348.84"/><path class="cls-1" d="M240.5,304.93q17.77,6.48,18.31,25.13"/><path class="cls-1" d="M238.83,313.11q11.23,4.74,11.64,15.77"/><path class="cls-1" d="M237.18,320.23q6,2.68,6.22,8.53"/><line class="cls-1" x1="226.58" y1="326.73" x2="233.24" y2="335.86"/><path class="cls-2" d="M215.88,403.87l.18,4.11a11.9,11.9,0,0,1,9.79-4.72q10.38,0,10.46,11.7v21.61h-5.59V414.93q0-3.54-1.62-5.23c-1.06-1.13-2.7-1.69-4.94-1.69a8.07,8.07,0,0,0-4.78,1.45,9.85,9.85,0,0,0-3.2,3.81v23.3h-5.59v-32.7Z"/><path class="cls-2" d="M253,396v7.92h6.11v4.32H253V428.5a4.57,4.57,0,0,0,.82,2.95,3.44,3.44,0,0,0,2.78,1,13.6,13.6,0,0,0,2.66-.36v4.51a16.31,16.31,0,0,1-4.29.6,7,7,0,0,1-5.65-2.27,9.74,9.74,0,0,1-1.91-6.44V408.19h-6v-4.32h6V396Z"/><path class="cls-2" d="M279.78,437.18A14.3,14.3,0,0,1,269,432.81q-4.17-4.37-4.17-11.68v-1a19.6,19.6,0,0,1,1.86-8.69,14.47,14.47,0,0,1,5.19-6,13.11,13.11,0,0,1,7.24-2.16q6.39,0,9.92,4.2t3.54,12v2.33H270.38a11.65,11.65,0,0,0,2.82,7.82,8.91,8.91,0,0,0,6.88,3,9.7,9.7,0,0,0,5-1.21,12.55,12.55,0,0,0,3.6-3.2l3.41,2.66Q288,437.17,279.78,437.18Zm-.7-29.32a7.47,7.47,0,0,0-5.68,2.46,12,12,0,0,0-2.84,6.91h16.38v-.43a10.63,10.63,0,0,0-2.29-6.6A7,7,0,0,0,279.08,407.86Z"/><path class="cls-2" d="M304.91,403.87l.19,4.11a11.89,11.89,0,0,1,9.79-4.72q10.37,0,10.46,11.7v21.61h-5.59V414.93q0-3.54-1.62-5.23T313.2,408a8,8,0,0,0-4.78,1.45,9.76,9.76,0,0,0-3.2,3.81v23.3h-5.6v-32.7Z"/><path class="cls-2" d="M339.69,403.87l.18,4.11a11.92,11.92,0,0,1,9.8-4.72q10.36,0,10.46,11.7v21.61h-5.6V414.93q0-3.54-1.61-5.23T348,408a8,8,0,0,0-4.77,1.45,9.87,9.87,0,0,0-3.21,3.81v23.3H334.4v-32.7Z"/><path class="cls-2" d="M389.37,436.57a11.75,11.75,0,0,1-.78-3.44,12.49,12.49,0,0,1-9.31,4.05,11.53,11.53,0,0,1-7.94-2.74,8.83,8.83,0,0,1-3.1-6.94,9.24,9.24,0,0,1,3.89-7.93q3.89-2.83,10.92-2.83h5.44v-2.57a6.28,6.28,0,0,0-1.75-4.67,7,7,0,0,0-5.17-1.73,8.17,8.17,0,0,0-5,1.51,4.43,4.43,0,0,0-2,3.65h-5.62a7.73,7.73,0,0,1,1.74-4.73,11.86,11.86,0,0,1,4.71-3.61,15.85,15.85,0,0,1,6.55-1.33c3.76,0,6.72.94,8.85,2.83a10.18,10.18,0,0,1,3.33,7.78v15.06a18.3,18.3,0,0,0,1.15,7.16v.48Zm-9.28-4.26a9.81,9.81,0,0,0,5-1.36,8.22,8.22,0,0,0,3.41-3.54V420.7h-4.38q-10.28,0-10.28,6a5.1,5.1,0,0,0,1.76,4.11A6.72,6.72,0,0,0,380.09,432.31Z"/><path class="cls-3" d="M213.18,476.91l.42,2.9.62-2.62,4.36-15.37H221l4.25,15.37.6,2.67.47-3,3.42-15.07h2.92l-5.34,22h-2.65l-4.54-16.06-.35-1.68-.35,1.68-4.7,16.06h-2.65l-5.33-22h2.91Z"/><path class="cls-3" d="M244.92,484.16A7.15,7.15,0,0,1,239.5,482a8.14,8.14,0,0,1-2.09-5.85v-.52a9.85,9.85,0,0,1,.93-4.35,7.25,7.25,0,0,1,2.61-3,6.54,6.54,0,0,1,3.62-1.09,6.17,6.17,0,0,1,5,2.11,9.16,9.16,0,0,1,1.76,6v1.17H240.21a5.83,5.83,0,0,0,1.41,3.91,4.45,4.45,0,0,0,3.45,1.49,4.88,4.88,0,0,0,2.51-.6,6.25,6.25,0,0,0,1.8-1.61l1.71,1.33A6.87,6.87,0,0,1,244.92,484.16Zm-.35-14.68a3.75,3.75,0,0,0-2.85,1.23,6,6,0,0,0-1.42,3.46h8.21V474a5.41,5.41,0,0,0-1.15-3.31A3.54,3.54,0,0,0,244.57,469.48Z"/><path class="cls-3" d="M271.46,483.85h-2.8V460.6h2.8Z"/><path class="cls-3" d="M278.3,475.52a9.74,9.74,0,0,1,.95-4.34,7,7,0,0,1,6.48-4,6.91,6.91,0,0,1,5.41,2.32,8.9,8.9,0,0,1,2.07,6.16v.2a9.65,9.65,0,0,1-.92,4.29,6.9,6.9,0,0,1-2.61,3,7.33,7.33,0,0,1-3.92,1.06,6.86,6.86,0,0,1-5.39-2.32,8.85,8.85,0,0,1-2.07-6.13Zm2.82.33a7,7,0,0,0,1.26,4.37,4.28,4.28,0,0,0,6.77,0,7.66,7.66,0,0,0,1.26-4.68,7,7,0,0,0-1.28-4.37,4.26,4.26,0,0,0-6.74,0A7.63,7.63,0,0,0,281.12,475.85Z"/><path class="cls-3" d="M306.39,481.87A4,4,0,0,0,309,481a3.17,3.17,0,0,0,1.24-2.27h2.65a5,5,0,0,1-1,2.68,6.3,6.3,0,0,1-2.38,2,6.85,6.85,0,0,1-3.16.76,6.78,6.78,0,0,1-5.32-2.23,8.89,8.89,0,0,1-2-6.11v-.47a9.9,9.9,0,0,1,.87-4.25,6.74,6.74,0,0,1,2.52-2.9,7.24,7.24,0,0,1,3.89-1,6.55,6.55,0,0,1,4.57,1.65,5.89,5.89,0,0,1,1.95,4.29h-2.65a3.85,3.85,0,0,0-1.2-2.61,3.74,3.74,0,0,0-2.67-1,3.92,3.92,0,0,0-3.31,1.53,7.25,7.25,0,0,0-1.17,4.44V476a7.12,7.12,0,0,0,1.16,4.36A3.94,3.94,0,0,0,306.39,481.87Z"/><path class="cls-3" d="M329.26,483.85a5.83,5.83,0,0,1-.39-1.72,6.28,6.28,0,0,1-4.67,2,5.81,5.81,0,0,1-4-1.37,4.46,4.46,0,0,1-1.55-3.48,4.64,4.64,0,0,1,1.94-4,9.23,9.23,0,0,1,5.48-1.41h2.72v-1.29a3.13,3.13,0,0,0-.88-2.34,3.5,3.5,0,0,0-2.58-.87,4.08,4.08,0,0,0-2.52.76,2.23,2.23,0,0,0-1,1.83H319a3.86,3.86,0,0,1,.87-2.37,6,6,0,0,1,2.36-1.81,8,8,0,0,1,3.28-.67,6.5,6.5,0,0,1,4.44,1.42,5.09,5.09,0,0,1,1.66,3.9V480a9.05,9.05,0,0,0,.58,3.59v.24Zm-4.65-2.13a5,5,0,0,0,2.5-.68,4,4,0,0,0,1.71-1.77v-3.36h-2.19q-5.14,0-5.15,3a2.54,2.54,0,0,0,.88,2.06A3.39,3.39,0,0,0,324.61,481.72Z"/><path class="cls-3" d="M342.91,463.51v4H346v2.16h-3.06v10.17a2.29,2.29,0,0,0,.41,1.48,1.7,1.7,0,0,0,1.39.49,6.71,6.71,0,0,0,1.33-.18v2.26a8.13,8.13,0,0,1-2.15.3,3.49,3.49,0,0,1-2.83-1.14,4.89,4.89,0,0,1-.95-3.22V469.64h-3v-2.16h3v-4Z"/><path class="cls-3" d="M359.13,484.16a7.17,7.17,0,0,1-5.42-2.19,8.13,8.13,0,0,1-2.08-5.85v-.52a9.85,9.85,0,0,1,.93-4.35,7.23,7.23,0,0,1,2.6-3,6.57,6.57,0,0,1,3.63-1.09,6.15,6.15,0,0,1,5,2.11,9.1,9.1,0,0,1,1.77,6v1.17H354.43a5.83,5.83,0,0,0,1.41,3.91,4.43,4.43,0,0,0,3.45,1.49,4.93,4.93,0,0,0,2.51-.6,6.52,6.52,0,0,0,1.8-1.61l1.71,1.33A6.88,6.88,0,0,1,359.13,484.16Zm-.34-14.68a3.75,3.75,0,0,0-2.85,1.23,5.94,5.94,0,0,0-1.42,3.46h8.2V474a5.29,5.29,0,0,0-1.15-3.31A3.52,3.52,0,0,0,358.79,469.48Z"/><path class="cls-3" d="M382,477.94a5.15,5.15,0,0,1,.89-2.92,13.5,13.5,0,0,1,3.38-3.11,14.48,14.48,0,0,1-2-2.87,5.08,5.08,0,0,1-.5-2.17,5.17,5.17,0,0,1,1.48-3.93,5.57,5.57,0,0,1,4-1.43,5.39,5.39,0,0,1,3.75,1.33,4.27,4.27,0,0,1,1.48,3.34,4.74,4.74,0,0,1-.67,2.46,8.65,8.65,0,0,1-2.35,2.36L390,472.2l4.9,5.86a9.25,9.25,0,0,0,1-4.38h2.53a10.52,10.52,0,0,1-1.87,6.41l3.15,3.76h-3.36l-1.46-1.74a7.74,7.74,0,0,1-2.63,1.53,9.56,9.56,0,0,1-3.07.52,7.57,7.57,0,0,1-5.17-1.71A5.72,5.72,0,0,1,382,477.94Zm7.13,3.93a5.89,5.89,0,0,0,4.08-1.69l-5.38-6.44-.5.37c-1.68,1.24-2.52,2.51-2.52,3.83A3.72,3.72,0,0,0,386,480.8,4.52,4.52,0,0,0,389.17,481.87Zm-2.52-15.09a6.33,6.33,0,0,0,1.78,3.63l1.79-1.25a5,5,0,0,0,1.41-1.39,3.17,3.17,0,0,0,.37-1.59,2.17,2.17,0,0,0-.75-1.69,2.77,2.77,0,0,0-1.91-.68,2.48,2.48,0,0,0-2,.84A3.16,3.16,0,0,0,386.65,466.78Z"/><path class="cls-3" d="M423.7,470a8.58,8.58,0,0,0-1.38-.11,3.69,3.69,0,0,0-3.74,2.35v11.62h-2.8V467.48h2.72l.05,1.89a4.37,4.37,0,0,1,3.9-2.2,2.77,2.77,0,0,1,1.25.22Z"/><path class="cls-3" d="M435.88,484.16a7.15,7.15,0,0,1-5.42-2.19,8.09,8.09,0,0,1-2.09-5.85v-.52a9.85,9.85,0,0,1,.93-4.35,7.3,7.3,0,0,1,2.6-3,6.6,6.6,0,0,1,3.63-1.09,6.13,6.13,0,0,1,5,2.11,9.1,9.1,0,0,1,1.77,6v1.17H431.17a5.83,5.83,0,0,0,1.41,3.91,4.44,4.44,0,0,0,3.45,1.49,4.88,4.88,0,0,0,2.51-.6,6.25,6.25,0,0,0,1.8-1.61l1.71,1.33A6.87,6.87,0,0,1,435.88,484.16Zm-.35-14.68a3.75,3.75,0,0,0-2.85,1.23,6,6,0,0,0-1.42,3.46h8.2V474a5.29,5.29,0,0,0-1.15-3.31A3.5,3.5,0,0,0,435.53,469.48Z"/><path class="cls-3" d="M451.65,483.85h-2.8V460.6h2.8Z"/><path class="cls-3" d="M458.49,475.52a9.74,9.74,0,0,1,.94-4.34,7,7,0,0,1,6.49-4,6.92,6.92,0,0,1,5.41,2.32,8.9,8.9,0,0,1,2.07,6.16v.2a9.79,9.79,0,0,1-.92,4.29,6.92,6.92,0,0,1-2.62,3,7.29,7.29,0,0,1-3.91,1.06,6.88,6.88,0,0,1-5.4-2.32,8.9,8.9,0,0,1-2.06-6.13Zm2.81.33a7,7,0,0,0,1.27,4.37,4.28,4.28,0,0,0,6.77,0,7.66,7.66,0,0,0,1.26-4.68,7,7,0,0,0-1.28-4.37,4.27,4.27,0,0,0-6.75,0A7.7,7.7,0,0,0,461.3,475.85Z"/><path class="cls-3" d="M486.58,481.87a4,4,0,0,0,2.62-.91,3.2,3.2,0,0,0,1.24-2.27h2.65a5.13,5.13,0,0,1-1,2.68,6.33,6.33,0,0,1-2.39,2,7.26,7.26,0,0,1-8.47-1.47,8.89,8.89,0,0,1-2-6.11v-.47a9.76,9.76,0,0,1,.88-4.25,6.62,6.62,0,0,1,2.52-2.9,7.2,7.2,0,0,1,3.88-1,6.57,6.57,0,0,1,4.58,1.65,5.93,5.93,0,0,1,1.95,4.29h-2.65a3.86,3.86,0,0,0-1.21-2.61,3.74,3.74,0,0,0-2.67-1,3.94,3.94,0,0,0-3.31,1.53,7.25,7.25,0,0,0-1.17,4.44V476a7,7,0,0,0,1.17,4.36A3.92,3.92,0,0,0,486.58,481.87Z"/><path class="cls-3" d="M509.45,483.85a5.76,5.76,0,0,1-.4-1.72,6.24,6.24,0,0,1-4.66,2,5.79,5.79,0,0,1-4-1.37,4.42,4.42,0,0,1-1.55-3.48,4.61,4.61,0,0,1,1.94-4,9.2,9.2,0,0,1,5.47-1.41H509v-1.29a3.17,3.17,0,0,0-.88-2.34,3.54,3.54,0,0,0-2.59-.87,4,4,0,0,0-2.51.76,2.21,2.21,0,0,0-1,1.83H499.2a3.86,3.86,0,0,1,.87-2.37,6,6,0,0,1,2.36-1.81,8,8,0,0,1,3.28-.67,6.49,6.49,0,0,1,4.43,1.42,5.1,5.1,0,0,1,1.67,3.9V480a9.26,9.26,0,0,0,.57,3.59v.24Zm-4.65-2.13a5,5,0,0,0,2.5-.68,4.16,4.16,0,0,0,1.71-1.77v-3.36h-2.2q-5.15,0-5.14,3a2.57,2.57,0,0,0,.87,2.06A3.42,3.42,0,0,0,504.8,481.72Z"/><path class="cls-3" d="M523.1,463.51v4h3v2.16h-3v10.17a2.29,2.29,0,0,0,.4,1.48,1.74,1.74,0,0,0,1.4.49,6.9,6.9,0,0,0,1.33-.18v2.26a8.19,8.19,0,0,1-2.15.3,3.47,3.47,0,0,1-2.83-1.14,4.84,4.84,0,0,1-1-3.22V469.64h-3v-2.16h3v-4Z"/><path class="cls-3" d="M539.32,484.16A7.15,7.15,0,0,1,533.9,482a8.14,8.14,0,0,1-2.09-5.85v-.52a9.85,9.85,0,0,1,.93-4.35,7.25,7.25,0,0,1,2.61-3,6.54,6.54,0,0,1,3.62-1.09,6.15,6.15,0,0,1,5,2.11,9.1,9.1,0,0,1,1.77,6v1.17h-11.1a5.78,5.78,0,0,0,1.42,3.91,4.42,4.42,0,0,0,3.44,1.49,4.88,4.88,0,0,0,2.51-.6,6.42,6.42,0,0,0,1.81-1.61L545.5,481A6.9,6.9,0,0,1,539.32,484.16ZM539,469.48a3.75,3.75,0,0,0-2.85,1.23,6,6,0,0,0-1.42,3.46h8.21V474a5.35,5.35,0,0,0-1.15-3.31A3.54,3.54,0,0,0,539,469.48Z"/><path class="cls-3" d="M566.62,463.51v4h3.06v2.16h-3.06v10.17a2.29,2.29,0,0,0,.41,1.48,1.7,1.7,0,0,0,1.39.49,6.8,6.8,0,0,0,1.33-.18v2.26a8.13,8.13,0,0,1-2.15.3,3.49,3.49,0,0,1-2.83-1.14,4.89,4.89,0,0,1-.95-3.22V469.64h-3v-2.16h3v-4Z"/><path class="cls-3" d="M586.16,483.85a5.83,5.83,0,0,1-.39-1.72,6.28,6.28,0,0,1-4.67,2,5.79,5.79,0,0,1-4-1.37,4.46,4.46,0,0,1-1.55-3.48,4.64,4.64,0,0,1,1.94-4,9.2,9.2,0,0,1,5.47-1.41h2.73v-1.29a3.13,3.13,0,0,0-.88-2.34,3.53,3.53,0,0,0-2.59-.87,4,4,0,0,0-2.51.76,2.2,2.2,0,0,0-1,1.83h-2.82a3.86,3.86,0,0,1,.87-2.37,6,6,0,0,1,2.36-1.81,8,8,0,0,1,3.28-.67,6.5,6.5,0,0,1,4.44,1.42,5.13,5.13,0,0,1,1.66,3.9V480a9.05,9.05,0,0,0,.58,3.59v.24Zm-4.65-2.13A5,5,0,0,0,584,481a4,4,0,0,0,1.71-1.77v-3.36h-2.19c-3.44,0-5.15,1-5.15,3a2.54,2.54,0,0,0,.88,2.06A3.37,3.37,0,0,0,581.51,481.72Z"/><path class="cls-3" d="M599.05,483.85h-2.8V460.6h2.8Z"/><path class="cls-3" d="M613.43,484.16A7.15,7.15,0,0,1,608,482a8.14,8.14,0,0,1-2.09-5.85v-.52a9.85,9.85,0,0,1,.93-4.35,7.3,7.3,0,0,1,2.6-3,6.6,6.6,0,0,1,3.63-1.09,6.12,6.12,0,0,1,5,2.11,9,9,0,0,1,1.78,6v1.17h-11.1a5.78,5.78,0,0,0,1.42,3.91,4.42,4.42,0,0,0,3.44,1.49,4.88,4.88,0,0,0,2.51-.6,6.25,6.25,0,0,0,1.8-1.61l1.72,1.33A6.9,6.9,0,0,1,613.43,484.16Zm-.35-14.68a3.75,3.75,0,0,0-2.85,1.23,6,6,0,0,0-1.42,3.46H617V474a5.35,5.35,0,0,0-1.15-3.31A3.54,3.54,0,0,0,613.08,469.48Z"/><path class="cls-3" d="M628.8,467.48l.1,2.06a6,6,0,0,1,4.9-2.37c3.46,0,5.21,2,5.24,5.86v10.82h-2.8V473a3.76,3.76,0,0,0-.81-2.62,3.24,3.24,0,0,0-2.48-.85,4,4,0,0,0-2.39.73,4.86,4.86,0,0,0-1.6,1.9v11.67h-2.8V467.48Z"/><path class="cls-3" d="M650.16,463.51v4h3.06v2.16h-3.06v10.17a2.23,2.23,0,0,0,.41,1.48,1.7,1.7,0,0,0,1.39.49,6.8,6.8,0,0,0,1.33-.18v2.26a8.13,8.13,0,0,1-2.15.3,3.49,3.49,0,0,1-2.83-1.14,4.89,4.89,0,0,1-.95-3.22V469.64h-3v-2.16h3v-4Z"/><path class="cls-3" d="M669.12,479.51a2,2,0,0,0-.85-1.76,8.21,8.21,0,0,0-3-1.08,14.58,14.58,0,0,1-3.38-1.09,4.87,4.87,0,0,1-1.85-1.52,3.6,3.6,0,0,1-.6-2.09,4.24,4.24,0,0,1,1.71-3.4,6.62,6.62,0,0,1,4.35-1.4,6.84,6.84,0,0,1,4.52,1.44,4.59,4.59,0,0,1,1.73,3.68H669a2.51,2.51,0,0,0-1-2,3.63,3.63,0,0,0-2.46-.83,3.84,3.84,0,0,0-2.39.66,2.1,2.1,0,0,0-.86,1.74,1.68,1.68,0,0,0,.8,1.53,9.83,9.83,0,0,0,2.9,1,15.31,15.31,0,0,1,3.4,1.13,5,5,0,0,1,1.92,1.56,3.85,3.85,0,0,1,.63,2.23,4.18,4.18,0,0,1-1.75,3.52,7.33,7.33,0,0,1-4.56,1.33,8.16,8.16,0,0,1-3.48-.7,5.64,5.64,0,0,1-2.37-1.94,4.73,4.73,0,0,1-.86-2.71h2.8a3,3,0,0,0,1.13,2.24,4.4,4.4,0,0,0,2.78.82,4.5,4.5,0,0,0,2.55-.64A2,2,0,0,0,669.12,479.51Z"/><path class="cls-2" d="M190.17,420.07H163.36l-6,16.74h-8.7l24.43-64h7.38l24.48,64h-8.66Zm-24.26-6.9h21.75l-10.9-29.93Z"/><path class="cls-3" d="M489.88,437.26a14.3,14.3,0,0,1-10.82-4.37q-4.17-4.36-4.18-11.68v-1a19.6,19.6,0,0,1,1.86-8.69,14.56,14.56,0,0,1,5.2-6,13.09,13.09,0,0,1,7.24-2.16q6.39,0,9.92,4.2t3.53,12v2.33H480.48a11.65,11.65,0,0,0,2.82,7.82,8.91,8.91,0,0,0,6.88,3,9.72,9.72,0,0,0,5-1.21,12.38,12.38,0,0,0,3.59-3.2l3.42,2.66Q498.1,437.26,489.88,437.26Zm-.7-29.32a7.47,7.47,0,0,0-5.68,2.46,12,12,0,0,0-2.84,6.91H497v-.43a10.57,10.57,0,0,0-2.3-6.6A7,7,0,0,0,489.18,407.94Z"/><path class="cls-3" d="M522.84,432.69a8,8,0,0,0,5.23-1.81,6.38,6.38,0,0,0,2.48-4.54h5.29a10.24,10.24,0,0,1-1.93,5.36,12.67,12.67,0,0,1-4.77,4,13.68,13.68,0,0,1-6.3,1.52,13.48,13.48,0,0,1-10.62-4.46q-3.95-4.46-4-12.2v-.94a19.67,19.67,0,0,1,1.76-8.49,13.25,13.25,0,0,1,5-5.77,14.28,14.28,0,0,1,7.75-2.06,13.08,13.08,0,0,1,9.14,3.3,11.74,11.74,0,0,1,3.89,8.55h-5.29a7.68,7.68,0,0,0-2.4-5.21,7.5,7.5,0,0,0-5.34-2,7.83,7.83,0,0,0-6.6,3.06q-2.36,3.08-2.35,8.88v1.05q0,5.65,2.33,8.71A7.88,7.88,0,0,0,522.84,432.69Z"/><path class="cls-3" d="M558.55,409a16.79,16.79,0,0,0-2.75-.21q-5.49,0-7.46,4.69v23.21h-5.59V404h5.44l.09,3.77a8.7,8.7,0,0,1,7.8-4.38,5.72,5.72,0,0,1,2.47.42Z"/><path class="cls-3" d="M584.51,433.42q-3.27,3.84-9.59,3.84c-3.48,0-6.14-1-8-3s-2.75-5-2.77-9V404h5.6v21.12q0,7.44,6,7.44,6.4,0,8.53-4.78V404H590v32.7h-5.32Z"/><path class="cls-3" d="M599.09,395.27a3.37,3.37,0,0,1,.83-2.3,3.15,3.15,0,0,1,2.46-.93,3.21,3.21,0,0,1,2.49.93,3.33,3.33,0,0,1,.84,2.3,3.22,3.22,0,0,1-.84,2.27,3.27,3.27,0,0,1-2.49.9,3.2,3.2,0,0,1-2.46-.9A3.26,3.26,0,0,1,599.09,395.27Zm6,41.38h-5.6V404h5.6Z"/><path class="cls-3" d="M622.29,396V404h6.11v4.32h-6.11v20.31a4.51,4.51,0,0,0,.82,2.95,3.44,3.44,0,0,0,2.78,1,13.7,13.7,0,0,0,2.66-.36v4.51a16.31,16.31,0,0,1-4.29.6A7,7,0,0,1,618.6,435a9.74,9.74,0,0,1-1.9-6.44V408.27h-6V404h6V396Z"/><path class="cls-3" d="M635.57,395.27a3.33,3.33,0,0,1,.84-2.3,3.12,3.12,0,0,1,2.46-.93,3.18,3.18,0,0,1,2.48.93,3.34,3.34,0,0,1,.85,2.3,3,3,0,0,1-3.33,3.17,3.17,3.17,0,0,1-2.46-.9A3.22,3.22,0,0,1,635.57,395.27Zm6,41.38H636V404h5.59Z"/><path class="cls-3" d="M656.48,404l.18,4.11a11.9,11.9,0,0,1,9.79-4.72q10.37,0,10.46,11.7v21.61h-5.59V415q0-3.54-1.62-5.23c-1.06-1.13-2.7-1.69-4.94-1.69a8.07,8.07,0,0,0-4.78,1.45,9.69,9.69,0,0,0-3.2,3.81v23.3h-5.59V404Z"/><path class="cls-3" d="M684.63,420q0-7.65,3.54-12.17a12.19,12.19,0,0,1,18.71-.29l.27-3.62h5.11v31.92q0,6.35-3.76,10t-10.11,3.66a16.82,16.82,0,0,1-6.93-1.51,11.91,11.91,0,0,1-5.16-4.14l2.9-3.36A11,11,0,0,0,698,445a8.59,8.59,0,0,0,6.37-2.3,8.79,8.79,0,0,0,2.28-6.47v-2.81a11.5,11.5,0,0,1-9.16,3.87,11.14,11.14,0,0,1-9.29-4.63Q684.64,428,684.63,420Zm5.63.63q0,5.54,2.26,8.69a7.37,7.37,0,0,0,6.35,3.16,8.19,8.19,0,0,0,7.77-4.8V412.77a8.28,8.28,0,0,0-7.71-4.68,7.42,7.42,0,0,0-6.38,3.17Q690.26,414.44,690.26,420.66Z"/><path class="cls-3" d="M446.55,412.57H432.36V437h-8V376.59h20q10.22,0,15.71,4.65t5.5,13.53a16.27,16.27,0,0,1-3.05,9.83,18.12,18.12,0,0,1-8.49,6.27l14.2,25.65v.5h-8.55Zm-14.19-6.51H444.6q5.94,0,9.44-3.08a10.4,10.4,0,0,0,3.51-8.23c0-3.75-1.11-6.61-3.34-8.61s-5.45-3-9.65-3h-12.2Z"/></g></svg>