<?xml version="1.0" encoding="UTF-8" standalone="no"?>
<svg
   xmlns:dc="http://purl.org/dc/elements/1.1/"
   xmlns:cc="http://creativecommons.org/ns#"
   xmlns:rdf="http://www.w3.org/1999/02/22-rdf-syntax-ns#"
   xmlns:svg="http://www.w3.org/2000/svg"
   xmlns="http://www.w3.org/2000/svg"
   height="200.39001"
   width="650.39001"
   id="svg109"
   version="1.1"
   viewBox="0 0 650.39001 200.39001">
  <metadata
     id="metadata113">
    <rdf:RDF>
      <cc:Work
         rdf:about="">
        <dc:format>image/svg+xml</dc:format>
        <dc:type
           rdf:resource="http://purl.org/dc/dcmitype/StillImage" />
        <dc:title>20.06.10 Yuri Antenna 5</dc:title>
      </cc:Work>
    </rdf:RDF>
  </metadata>
  <defs
     id="defs4">
    <style
       id="style2">.cls-1{fill:none;stroke:#92c466;stroke-miterlimit:10;stroke-width:2px;}.cls-2{fill:#92c466;}.cls-3{fill:#2a4b9b;}</style>
  </defs>
  <title
     id="title6">20.06.10 Yuri Antenna 5</title>
  <g
     transform="translate(-122.51381,-266.2435)"
     style="fill:#f7f7f7;fill-opacity:1"
     id="g203">
    <path
       style="fill:#f7f7f7;fill-opacity:1"
       id="path34"
       d="m 212.04361,449.44253 0.42,2.9 0.62,-2.62 4.36,-15.37 h 2.45 l 4.26,15.37 0.6,2.67 0.47,-3 3.42,-15.07 h 2.92 l -5.34,22 h -2.65 l -4.54,-16.06 -0.35,-1.68 -0.35,1.68 -4.7,16.06 h -2.65 l -5.33,-22 h 2.91 z"
       class="cls-3" />
    <path
       style="fill:#f7f7f7;fill-opacity:1"
       id="path36"
       d="m 243.78361,456.69253 a 7.15,7.15 0 0 1 -5.42,-2.19 8.09,8.09 0 0 1 -2.09,-5.85 v -0.52 a 9.85,9.85 0 0 1 0.93,-4.35 7.3,7.3 0 0 1 2.6,-3 6.6,6.6 0 0 1 3.63,-1.09 6.1,6.1 0 0 1 5,2.11 9.1,9.1 0 0 1 1.77,6 v 1.17 h -11.13 a 5.83,5.83 0 0 0 1.41,3.91 4.49,4.49 0 0 0 3.45,1.49 4.91,4.91 0 0 0 2.51,-0.6 6.25,6.25 0 0 0 1.8,-1.61 l 1.71,1.33 a 6.87,6.87 0 0 1 -6.17,3.2 z m -0.35,-14.72 a 3.76,3.76 0 0 0 -2.85,1.24 6,6 0 0 0 -1.42,3.46 h 8.22 v -0.21 a 5.29,5.29 0 0 0 -1.15,-3.31 3.51,3.51 0 0 0 -2.8,-1.18 z"
       class="cls-3" />
    <path
       style="fill:#f7f7f7;fill-opacity:1"
       id="path38"
       d="m 270.32361,456.38253 h -2.8 v -23.25 h 2.8 z"
       class="cls-3" />
    <path
       style="fill:#f7f7f7;fill-opacity:1"
       id="path40"
       d="m 277.16361,448.04253 a 9.59,9.59 0 0 1 1,-4.33 7,7 0 0 1 6.48,-4 6.91,6.91 0 0 1 5.41,2.32 8.9,8.9 0 0 1 2.07,6.16 v 0.2 a 9.79,9.79 0 0 1 -0.92,4.29 7,7 0 0 1 -2.61,3 7.33,7.33 0 0 1 -3.92,1.06 6.85,6.85 0 0 1 -5.39,-2.32 8.85,8.85 0 0 1 -2.07,-6.13 z m 2.82,0.34 a 7,7 0 0 0 1.26,4.37 4.28,4.28 0 0 0 6.77,0 7.67,7.67 0 0 0 1.26,-4.69 7,7 0 0 0 -1.28,-4.36 4.24,4.24 0 0 0 -6.74,0 7.61,7.61 0 0 0 -1.27,4.68 z"
       class="cls-3" />
    <path
       style="fill:#f7f7f7;fill-opacity:1"
       id="path42"
       d="m 305.25361,454.40253 a 4,4 0 0 0 2.62,-0.91 3.17,3.17 0 0 0 1.24,-2.27 h 2.65 a 5,5 0 0 1 -1,2.68 6.3,6.3 0 0 1 -2.38,2 6.85,6.85 0 0 1 -3.16,0.76 6.75,6.75 0 0 1 -5.32,-2.24 8.85,8.85 0 0 1 -2,-6.1 v -0.47 a 10,10 0 0 1 0.88,-4.26 6.77,6.77 0 0 1 2.52,-2.89 7.24,7.24 0 0 1 3.89,-1 6.55,6.55 0 0 1 4.57,1.65 5.89,5.89 0 0 1 1.95,4.29 h -2.65 a 3.85,3.85 0 0 0 -1.2,-2.61 3.76,3.76 0 0 0 -2.67,-1 3.93,3.93 0 0 0 -3.31,1.54 7.25,7.25 0 0 0 -1.17,4.44 v 0.53 a 7.05,7.05 0 0 0 1.16,4.36 3.94,3.94 0 0 0 3.38,1.5 z"
       class="cls-3" />
    <path
       style="fill:#f7f7f7;fill-opacity:1"
       id="path44"
       d="m 328.12361,456.38253 a 6.09,6.09 0 0 1 -0.4,-1.72 6.24,6.24 0 0 1 -4.66,2 5.79,5.79 0 0 1 -4,-1.37 4.42,4.42 0 0 1 -1.55,-3.48 4.64,4.64 0 0 1 1.94,-4 9.2,9.2 0 0 1 5.47,-1.42 h 2.73 v -1.22 a 3.13,3.13 0 0 0 -0.88,-2.34 3.53,3.53 0 0 0 -2.59,-0.87 4,4 0 0 0 -2.51,0.76 2.23,2.23 0 0 0 -1,1.83 h -2.82 a 3.86,3.86 0 0 1 0.87,-2.37 6,6 0 0 1 2.36,-1.81 8,8 0 0 1 3.28,-0.67 6.46,6.46 0 0 1 4.43,1.42 5.1,5.1 0 0 1 1.67,3.9 v 7.53 a 9.29,9.29 0 0 0 0.57,3.59 v 0.24 z m -4.65,-2.13 a 5,5 0 0 0 2.5,-0.68 4.1,4.1 0 0 0 1.71,-1.77 v -3.36 h -2.2 q -5.14,0 -5.14,3 a 2.54,2.54 0 0 0 0.88,2.06 3.37,3.37 0 0 0 2.25,0.75 z"
       class="cls-3" />
    <path
       style="fill:#f7f7f7;fill-opacity:1"
       id="path46"
       d="m 341.77361,436.04253 v 4 h 3.06 v 2.16 h -3.06 v 10.17 a 2.23,2.23 0 0 0 0.41,1.48 1.7,1.7 0 0 0 1.39,0.49 6.8,6.8 0 0 0 1.33,-0.18 v 2.26 a 8.13,8.13 0 0 1 -2.15,0.3 3.49,3.49 0 0 1 -2.83,-1.14 4.91,4.91 0 0 1 -1,-3.22 v -10.19 h -3 v -2.2 h 3 v -4 z"
       class="cls-3" />
    <path
       style="fill:#f7f7f7;fill-opacity:1"
       id="path48"
       d="m 357.99361,456.69253 a 7.15,7.15 0 0 1 -5.42,-2.19 8.14,8.14 0 0 1 -2.09,-5.85 v -0.52 a 9.72,9.72 0 0 1 0.94,-4.35 7.23,7.23 0 0 1 2.6,-3 6.54,6.54 0 0 1 3.62,-1.09 6.12,6.12 0 0 1 5,2.11 9.1,9.1 0 0 1 1.77,6 v 1.17 h -11.12 a 5.78,5.78 0 0 0 1.41,3.91 4.45,4.45 0 0 0 3.44,1.49 5,5 0 0 0 2.52,-0.6 6.52,6.52 0 0 0 1.8,-1.61 l 1.71,1.33 a 6.89,6.89 0 0 1 -6.18,3.2 z m -0.35,-14.72 a 3.73,3.73 0 0 0 -2.84,1.24 6,6 0 0 0 -1.43,3.46 h 8.21 v -0.21 a 5.29,5.29 0 0 0 -1.15,-3.31 3.54,3.54 0 0 0 -2.79,-1.18 z"
       class="cls-3" />
    <path
       style="fill:#f7f7f7;fill-opacity:1"
       id="path50"
       d="m 391.61361,456.38253 a 5.46,5.46 0 0 1 -0.4,-1.72 6.24,6.24 0 0 1 -4.66,2 5.79,5.79 0 0 1 -4,-1.37 4.42,4.42 0 0 1 -1.55,-3.48 4.61,4.61 0 0 1 1.94,-4 9.2,9.2 0 0 1 5.47,-1.42 h 2.73 v -1.22 a 3.17,3.17 0 0 0 -0.88,-2.34 3.54,3.54 0 0 0 -2.59,-0.87 4,4 0 0 0 -2.51,0.76 2.21,2.21 0 0 0 -1,1.83 h -2.78 a 3.86,3.86 0 0 1 0.87,-2.37 6,6 0 0 1 2.36,-1.81 8,8 0 0 1 3.28,-0.67 6.49,6.49 0 0 1 4.43,1.42 5.1,5.1 0 0 1 1.67,3.9 v 7.53 a 9.29,9.29 0 0 0 0.57,3.59 v 0.24 z m -4.65,-2.13 a 4.91,4.91 0 0 0 2.49,-0.68 4.18,4.18 0 0 0 1.72,-1.77 v -3.36 h -2.2 q -5.14,0 -5.15,3 a 2.57,2.57 0 0 0 0.88,2.06 3.42,3.42 0 0 0 2.26,0.75 z"
       class="cls-3" />
    <path
       style="fill:#f7f7f7;fill-opacity:1"
       id="path52"
       d="m 404.10361,439.97253 0.1,2.06 a 6,6 0 0 1 4.9,-2.37 c 3.46,0 5.21,2 5.24,5.86 v 10.82 h -2.8 v -10.79 a 3.76,3.76 0 0 0 -0.81,-2.62 3.24,3.24 0 0 0 -2.48,-0.85 4,4 0 0 0 -2.39,0.73 4.86,4.86 0 0 0 -1.6,1.9 v 11.67 h -2.81 v -16.41 z"
       class="cls-3" />
    <path
       style="fill:#f7f7f7;fill-opacity:1"
       id="path54"
       d="m 420.98361,448.06253 a 9.54,9.54 0 0 1 1.79,-6.06 6.07,6.07 0 0 1 9.23,-0.33 v -8.54 h 2.8 v 23.25 h -2.57 l -0.14,-1.75 a 5.71,5.71 0 0 1 -4.68,2.06 5.62,5.62 0 0 1 -4.64,-2.33 9.77,9.77 0 0 1 -1.79,-6.09 z m 2.8,0.32 a 7.26,7.26 0 0 0 1.15,4.36 3.72,3.72 0 0 0 3.18,1.57 4.1,4.1 0 0 0 3.89,-2.39 v -7.52 a 4.12,4.12 0 0 0 -3.86,-2.32 3.74,3.74 0 0 0 -3.21,1.59 8,8 0 0 0 -1.15,4.71 z"
       class="cls-3" />
    <path
       style="fill:#f7f7f7;fill-opacity:1"
       id="path56"
       d="m 460.93361,442.52253 a 8.36,8.36 0 0 0 -1.37,-0.11 3.69,3.69 0 0 0 -3.74,2.35 v 11.62 h -2.8 v -16.41 h 2.72 l 0.05,1.89 a 4.36,4.36 0 0 1 3.9,-2.2 2.7,2.7 0 0 1 1.24,0.22 z"
       class="cls-3" />
    <path
       style="fill:#f7f7f7;fill-opacity:1"
       id="path58"
       d="m 473.12361,456.69253 a 7.13,7.13 0 0 1 -5.42,-2.19 8.09,8.09 0 0 1 -2.09,-5.85 v -0.52 a 9.85,9.85 0 0 1 0.93,-4.35 7.3,7.3 0 0 1 2.6,-3 6.57,6.57 0 0 1 3.63,-1.09 6.1,6.1 0 0 1 5,2.11 9.1,9.1 0 0 1 1.77,6 v 1.17 h -11.16 a 5.83,5.83 0 0 0 1.41,3.91 4.47,4.47 0 0 0 3.45,1.49 4.91,4.91 0 0 0 2.51,-0.6 6.39,6.39 0 0 0 1.8,-1.61 l 1.71,1.33 a 6.87,6.87 0 0 1 -6.14,3.2 z m -0.35,-14.72 a 3.76,3.76 0 0 0 -2.85,1.24 5.94,5.94 0 0 0 -1.42,3.46 h 8.2 v -0.21 a 5.29,5.29 0 0 0 -1.15,-3.31 3.51,3.51 0 0 0 -2.78,-1.18 z"
       class="cls-3" />
    <path
       style="fill:#f7f7f7;fill-opacity:1"
       id="path60"
       d="m 488.88361,456.38253 h -2.8 v -23.25 h 2.8 z"
       class="cls-3" />
    <path
       style="fill:#f7f7f7;fill-opacity:1"
       id="path62"
       d="m 495.72361,448.04253 a 9.73,9.73 0 0 1 1,-4.33 7,7 0 0 1 6.49,-4 6.92,6.92 0 0 1 5.41,2.32 8.89,8.89 0 0 1 2.06,6.16 v 0.2 a 9.78,9.78 0 0 1 -0.91,4.29 7,7 0 0 1 -2.62,3 7.32,7.32 0 0 1 -3.91,1.06 6.88,6.88 0 0 1 -5.4,-2.32 8.85,8.85 0 0 1 -2.07,-6.13 z m 2.82,0.34 a 7,7 0 0 0 1.26,4.37 4.29,4.29 0 0 0 6.78,0 7.67,7.67 0 0 0 1.25,-4.69 6.93,6.93 0 0 0 -1.28,-4.36 4.24,4.24 0 0 0 -6.74,0 7.61,7.61 0 0 0 -1.27,4.68 z"
       class="cls-3" />
    <path
       style="fill:#f7f7f7;fill-opacity:1"
       id="path64"
       d="m 523.81361,454.40253 a 4,4 0 0 0 2.62,-0.91 3.21,3.21 0 0 0 1.25,-2.27 h 2.64 a 5.11,5.11 0 0 1 -1,2.68 6.41,6.41 0 0 1 -2.39,2 7.26,7.26 0 0 1 -8.48,-1.48 8.89,8.89 0 0 1 -2,-6.1 v -0.47 a 9.8,9.8 0 0 1 0.88,-4.26 6.65,6.65 0 0 1 2.52,-2.89 7.2,7.2 0 0 1 3.88,-1 6.57,6.57 0 0 1 4.58,1.65 5.92,5.92 0 0 1 1.94,4.29 h -2.57 a 3.91,3.91 0 0 0 -1.21,-2.61 3.75,3.75 0 0 0 -2.67,-1 3.94,3.94 0 0 0 -3.31,1.54 7.25,7.25 0 0 0 -1.17,4.44 v 0.53 a 7.12,7.12 0 0 0 1.16,4.36 3.94,3.94 0 0 0 3.33,1.5 z"
       class="cls-3" />
    <path
       style="fill:#f7f7f7;fill-opacity:1"
       id="path66"
       d="m 546.68361,456.38253 a 5.83,5.83 0 0 1 -0.39,-1.72 6.24,6.24 0 0 1 -4.66,2 5.81,5.81 0 0 1 -4,-1.37 4.46,4.46 0 0 1 -1.55,-3.48 4.62,4.62 0 0 1 1.95,-4 9.2,9.2 0 0 1 5.47,-1.42 h 2.72 v -1.22 a 3.16,3.16 0 0 0 -0.87,-2.34 3.54,3.54 0 0 0 -2.59,-0.87 4,4 0 0 0 -2.51,0.76 2.21,2.21 0 0 0 -1,1.83 h -2.81 a 3.86,3.86 0 0 1 0.87,-2.37 5.88,5.88 0 0 1 2.36,-1.81 8,8 0 0 1 3.28,-0.67 6.49,6.49 0 0 1 4.43,1.42 5.06,5.06 0 0 1 1.66,3.9 v 7.53 a 9.27,9.27 0 0 0 0.58,3.59 v 0.24 z m -4.64,-2.13 a 5,5 0 0 0 2.5,-0.68 4.13,4.13 0 0 0 1.7,-1.77 v -3.36 h -2.19 q -5.14,0 -5.15,3 a 2.57,2.57 0 0 0 0.88,2.06 3.42,3.42 0 0 0 2.26,0.75 z"
       class="cls-3" />
    <path
       style="fill:#f7f7f7;fill-opacity:1"
       id="path68"
       d="m 560.38361,436.04253 v 4 h 3 v 2.16 h -3 v 10.17 a 2.29,2.29 0 0 0 0.41,1.48 1.73,1.73 0 0 0 1.39,0.49 6.88,6.88 0 0 0 1.34,-0.18 v 2.26 a 8.25,8.25 0 0 1 -2.15,0.3 3.47,3.47 0 0 1 -2.83,-1.14 4.85,4.85 0 0 1 -1,-3.22 v -10.19 h -3 v -2.2 h 3 v -4 z"
       class="cls-3" />
    <path
       style="fill:#f7f7f7;fill-opacity:1"
       id="path70"
       d="m 576.56361,456.69253 a 7.15,7.15 0 0 1 -5.42,-2.19 8.09,8.09 0 0 1 -2.09,-5.85 v -0.52 a 9.85,9.85 0 0 1 0.93,-4.35 7.3,7.3 0 0 1 2.6,-3 6.6,6.6 0 0 1 3.63,-1.09 6.1,6.1 0 0 1 5,2.11 9.1,9.1 0 0 1 1.77,6 v 1.17 h -11.13 a 5.83,5.83 0 0 0 1.41,3.91 4.47,4.47 0 0 0 3.45,1.49 4.88,4.88 0 0 0 2.51,-0.6 6.25,6.25 0 0 0 1.8,-1.61 l 1.71,1.33 a 6.87,6.87 0 0 1 -6.17,3.2 z m -0.35,-14.72 a 3.76,3.76 0 0 0 -2.85,1.24 6,6 0 0 0 -1.42,3.46 h 8.2 v -0.21 a 5.29,5.29 0 0 0 -1.15,-3.31 3.51,3.51 0 0 0 -2.78,-1.18 z"
       class="cls-3" />
    <path
       style="fill:#f7f7f7;fill-opacity:1"
       id="path72"
       d="m 603.86361,436.04253 v 4 h 3.06 v 2.16 h -3.06 v 10.17 a 2.23,2.23 0 0 0 0.41,1.48 1.7,1.7 0 0 0 1.39,0.49 6.8,6.8 0 0 0 1.33,-0.18 v 2.26 a 8.19,8.19 0 0 1 -2.15,0.3 3.49,3.49 0 0 1 -2.83,-1.14 4.85,4.85 0 0 1 -1,-3.22 v -10.19 h -3 v -2.2 h 3 v -4 z"
       class="cls-3" />
    <path
       style="fill:#f7f7f7;fill-opacity:1"
       id="path74"
       d="m 623.38361,456.38253 a 5.76,5.76 0 0 1 -0.4,-1.72 6.24,6.24 0 0 1 -4.66,2 5.79,5.79 0 0 1 -4,-1.37 4.42,4.42 0 0 1 -1.55,-3.48 4.61,4.61 0 0 1 1.94,-4 9.2,9.2 0 0 1 5.47,-1.42 h 2.73 v -1.22 a 3.13,3.13 0 0 0 -0.88,-2.34 3.54,3.54 0 0 0 -2.59,-0.87 4,4 0 0 0 -2.51,0.76 2.21,2.21 0 0 0 -1,1.83 h -2.81 a 3.86,3.86 0 0 1 0.87,-2.37 6,6 0 0 1 2.39,-1.81 8,8 0 0 1 3.28,-0.67 6.49,6.49 0 0 1 4.43,1.42 5.1,5.1 0 0 1 1.67,3.9 v 7.53 a 9.29,9.29 0 0 0 0.57,3.59 v 0.24 z m -4.65,-2.13 a 5,5 0 0 0 2.5,-0.68 4.1,4.1 0 0 0 1.71,-1.77 v -3.36 h -2.2 q -5.14,0 -5.14,3 a 2.57,2.57 0 0 0 0.87,2.06 3.42,3.42 0 0 0 2.28,0.75 z"
       class="cls-3" />
    <path
       style="fill:#f7f7f7;fill-opacity:1"
       id="path76"
       d="m 636.29361,456.38253 h -2.8 v -23.25 h 2.8 z"
       class="cls-3" />
    <path
       style="fill:#f7f7f7;fill-opacity:1"
       id="path78"
       d="m 650.67361,456.69253 a 7.15,7.15 0 0 1 -5.42,-2.19 8.09,8.09 0 0 1 -2.09,-5.85 v -0.52 a 9.85,9.85 0 0 1 0.93,-4.35 7.3,7.3 0 0 1 2.6,-3 6.6,6.6 0 0 1 3.63,-1.09 6.1,6.1 0 0 1 5,2.11 9.1,9.1 0 0 1 1.77,6 v 1.17 h -11.13 a 5.83,5.83 0 0 0 1.41,3.91 4.47,4.47 0 0 0 3.45,1.49 4.91,4.91 0 0 0 2.51,-0.6 6.25,6.25 0 0 0 1.8,-1.61 l 1.71,1.33 a 6.87,6.87 0 0 1 -6.17,3.2 z m -0.35,-14.72 a 3.76,3.76 0 0 0 -2.85,1.24 5.94,5.94 0 0 0 -1.42,3.46 h 8.2 v -0.21 a 5.29,5.29 0 0 0 -1.15,-3.31 3.51,3.51 0 0 0 -2.78,-1.18 z"
       class="cls-3" />
    <path
       style="fill:#f7f7f7;fill-opacity:1"
       id="path80"
       d="m 666.04361,439.97253 0.09,2.06 a 6,6 0 0 1 4.91,-2.37 c 3.46,0 5.21,2 5.24,5.86 v 10.82 h -2.81 v -10.79 a 3.76,3.76 0 0 0 -0.8,-2.62 3.26,3.26 0 0 0 -2.48,-0.85 4,4 0 0 0 -2.39,0.73 4.86,4.86 0 0 0 -1.6,1.9 v 11.67 h -2.82 v -16.41 z"
       class="cls-3" />
    <path
       style="fill:#f7f7f7;fill-opacity:1"
       id="path82"
       d="m 687.38361,436.04253 v 4 h 3.05 v 2.16 h -3.05 v 10.17 a 2.23,2.23 0 0 0 0.41,1.48 1.7,1.7 0 0 0 1.39,0.49 6.9,6.9 0 0 0 1.33,-0.18 v 2.26 a 8.19,8.19 0 0 1 -2.15,0.3 3.49,3.49 0 0 1 -2.83,-1.14 4.85,4.85 0 0 1 -0.95,-3.22 v -10.19 h -3 v -2.2 h 3 v -4 z"
       class="cls-3" />
    <path
       style="fill:#f7f7f7;fill-opacity:1"
       id="path84"
       d="m 706.38361,452.04253 a 2,2 0 0 0 -0.85,-1.76 8.2,8.2 0 0 0 -3,-1.08 14.64,14.64 0 0 1 -3.37,-1.09 4.87,4.87 0 0 1 -1.85,-1.52 3.6,3.6 0 0 1 -0.6,-2.09 4.24,4.24 0 0 1 1.71,-3.4 6.62,6.62 0 0 1 4.35,-1.4 6.84,6.84 0 0 1 4.52,1.44 4.59,4.59 0 0 1 1.73,3.68 h -2.82 a 2.51,2.51 0 0 0 -1,-2 3.63,3.63 0 0 0 -2.46,-0.84 3.84,3.84 0 0 0 -2.39,0.67 2.09,2.09 0 0 0 -0.87,1.74 1.69,1.69 0 0 0 0.81,1.53 9.85,9.85 0 0 0 2.89,1 15.7,15.7 0 0 1 3.4,1.12 5,5 0 0 1 1.93,1.57 3.85,3.85 0 0 1 0.63,2.23 4.16,4.16 0 0 1 -1.76,3.52 7.3,7.3 0 0 1 -4.55,1.33 8.31,8.31 0 0 1 -3.45,-0.72 5.64,5.64 0 0 1 -2.37,-1.94 4.73,4.73 0 0 1 -0.86,-2.71 h 2.8 a 2.92,2.92 0 0 0 1.13,2.24 4.38,4.38 0 0 0 2.78,0.82 4.5,4.5 0 0 0 2.55,-0.64 2,2 0 0 0 0.97,-1.7 z"
       class="cls-3" />
  </g>
  <g
     style="stroke:#6da83e;stroke-opacity:1"
     id="g950">
    <path
       style="fill:none;stroke:#6da83e;stroke-width:2px;stroke-miterlimit:10;stroke-opacity:1"
       id="path8"
       d="m 125.6398,91.17903 c -50.23,0.36 -67.24,-23.84 -51.21,-73.11 z"
       class="cls-1" />
    <path
       style="fill:none;stroke:#6da83e;stroke-width:2px;stroke-miterlimit:10;stroke-opacity:1"
       d="m 100.4198,54.73903 -7.05,-10.07 31.14,-6.44 -16.26,27.68 z"
       id="polygon10" />
    <path
       style="fill:none;stroke:#6da83e;stroke-width:2px;stroke-miterlimit:10;stroke-opacity:1"
       d="m 124.5098,38.22903 -24.57,16.9"
       id="line12" />
    <path
       style="fill:none;stroke:#6da83e;stroke-width:2px;stroke-miterlimit:10;stroke-opacity:1"
       id="path14"
       d="m 136.0398,11.21903 q 17.78,6.48 18.31,25.13"
       class="cls-1" />
    <path
       style="fill:none;stroke:#6da83e;stroke-width:2px;stroke-miterlimit:10;stroke-opacity:1"
       id="path16"
       d="m 134.3698,19.39903 q 11.24,4.74 11.64,15.77"
       class="cls-1" />
    <path
       style="fill:none;stroke:#6da83e;stroke-width:2px;stroke-miterlimit:10;stroke-opacity:1"
       id="path18"
       d="m 132.7198,26.51903 q 6,2.68 6.22,8.53"
       class="cls-1" />
    <path
       style="fill:none;stroke:#6da83e;stroke-width:2px;stroke-miterlimit:10;stroke-opacity:1"
       d="m 122.1198,33.01904 6.66,9.13001"
       id="line20" />
  </g>
  <g
     style="fill:#6da83e;fill-opacity:1"
     id="g941">
    <path
       style="fill:#6da83e;fill-opacity:1"
       id="path22"
       d="m 111.4198,110.15903 0.18,4.11 a 11.9,11.9 0 0 1 9.79,-4.72 q 10.38,0 10.46,11.7 v 21.61 h -5.59 v -21.64 q 0,-3.54 -1.62,-5.23 c -1.06,-1.13 -2.7,-1.69 -4.94,-1.69 a 8.07,8.07 0 0 0 -4.78,1.45 9.92,9.92 0 0 0 -3.2,3.81 v 23.3 h -5.59 v -32.7 z"
       class="cls-2" />
    <path
       style="fill:#6da83e;fill-opacity:1"
       id="path24"
       d="m 148.4898,102.23903 v 7.92 h 6.11 v 4.32 h -6.11 v 20.31 a 4.57,4.57 0 0 0 0.82,2.95 3.44,3.44 0 0 0 2.78,1 13.7,13.7 0 0 0 2.66,-0.36 v 4.51 a 16.31,16.31 0 0 1 -4.29,0.6 7,7 0 0 1 -5.65,-2.27 9.74,9.74 0 0 1 -1.94,-6.49 v -20.25 h -5.95 v -4.32 h 5.95 v -7.92 z"
       class="cls-2" />
    <path
       style="fill:#6da83e;fill-opacity:1"
       id="path26"
       d="m 175.3198,143.46903 a 14.3,14.3 0 0 1 -10.82,-4.37 q -4.17,-4.37 -4.17,-11.68 v -1 a 19.6,19.6 0 0 1 1.86,-8.69 14.47,14.47 0 0 1 5.19,-6 13.11,13.11 0 0 1 7.24,-2.16 q 6.39,0 9.92,4.2 c 2.36,2.8 3.54,6.82 3.54,12 v 2.33 h -22.16 a 11.65,11.65 0 0 0 2.82,7.82 8.91,8.91 0 0 0 6.88,3 9.7,9.7 0 0 0 5,-1.21 12.55,12.55 0 0 0 3.6,-3.2 l 3.41,2.66 q -4.09,6.3 -12.31,6.3 z m -0.7,-29.32 a 7.47,7.47 0 0 0 -5.68,2.46 12,12 0 0 0 -2.84,6.91 h 16.38 v -0.43 a 10.63,10.63 0 0 0 -2.29,-6.6 7,7 0 0 0 -5.57,-2.34 z"
       class="cls-2" />
    <path
       style="fill:#6da83e;fill-opacity:1"
       id="path28"
       d="m 200.4498,110.15903 0.19,4.11 a 11.89,11.89 0 0 1 9.79,-4.72 q 10.37,0 10.46,11.7 v 21.61 h -5.59 v -21.64 q 0,-3.54 -1.62,-5.23 -1.62,-1.69 -4.94,-1.69 a 8,8 0 0 0 -4.78,1.45 9.83,9.83 0 0 0 -3.2,3.81 v 23.3 h -5.6 v -32.7 z"
       class="cls-2" />
    <path
       style="fill:#6da83e;fill-opacity:1"
       id="path30"
       d="m 235.2298,110.15903 0.18,4.11 a 11.92,11.92 0 0 1 9.8,-4.72 q 10.37,0 10.46,11.7 v 21.61 h -5.6 v -21.64 q 0,-3.54 -1.61,-5.23 -1.61,-1.69 -4.95,-1.69 a 8,8 0 0 0 -4.77,1.45 9.94,9.94 0 0 0 -3.21,3.81 v 23.3 h -5.59 v -32.7 z"
       class="cls-2" />
    <path
       style="fill:#6da83e;fill-opacity:1"
       id="path32"
       d="m 284.8698,142.85903 a 11.75,11.75 0 0 1 -0.78,-3.44 12.49,12.49 0 0 1 -9.31,4.05 11.53,11.53 0 0 1 -7.91,-2.74 8.83,8.83 0 0 1 -3.1,-6.94 9.24,9.24 0 0 1 3.89,-7.93 q 3.88,-2.82 10.92,-2.83 h 5.44 v -2.57 a 6.28,6.28 0 0 0 -1.75,-4.67 7,7 0 0 0 -5.17,-1.73 8.15,8.15 0 0 0 -5,1.51 4.44,4.44 0 0 0 -2,3.65 h -5.62 a 7.73,7.73 0 0 1 1.74,-4.73 11.86,11.86 0 0 1 4.71,-3.61 16,16 0 0 1 6.54,-1.33 c 3.77,0 6.73,0.94 8.86,2.83 a 10.18,10.18 0 0 1 3.33,7.78 v 15.06 a 18.3,18.3 0 0 0 1.15,7.16 v 0.48 z m -9.28,-4.26 a 9.81,9.81 0 0 0 5,-1.36 8.17,8.17 0 0 0 3.41,-3.54 v -6.71 h -4.38 q -10.27,0 -10.28,6 a 5.1,5.1 0 0 0 1.76,4.11 6.72,6.72 0 0 0 4.53,1.5 z"
       class="cls-2" />
    <path
       style="fill:#6da83e;fill-opacity:1"
       id="path86"
       d="m 85.7098,126.35903 h -26.84 l -6,16.74 h -8.7 l 24.43,-64 h 7.38 l 24.48,64 h -8.66 z m -24.26,-6.9 h 21.75 l -10.9,-29.93 z"
       class="cls-2" />
  </g>
  <g
     transform="translate(-122.51381,-266.2435)"
     style="fill:#f7f7f7;fill-opacity:1;stroke:#ff0000;stroke-opacity:0"
     id="g175">
    <path
       style="fill:#f7f7f7;fill-opacity:1;stroke:#ff0000;stroke-opacity:0"
       id="path88"
       d="m 507.93361,409.79253 a 14.28,14.28 0 0 1 -10.82,-4.37 q -4.17,-4.36 -4.17,-11.68 v -1 a 19.6,19.6 0 0 1 1.85,-8.69 14.56,14.56 0 0 1 5.2,-6 13.09,13.09 0 0 1 7.24,-2.16 q 6.38,0 9.92,4.2 3.54,4.2 3.53,12 v 2.33 h -22.15 a 11.63,11.63 0 0 0 2.82,7.81 8.89,8.89 0 0 0 6.88,3 9.72,9.72 0 0 0 5,-1.21 12.55,12.55 0 0 0 3.6,-3.2 l 3.41,2.66 q -4.09,6.3 -12.31,6.31 z m -0.7,-29.32 a 7.45,7.45 0 0 0 -5.68,2.46 12,12 0 0 0 -2.84,6.91 h 16.38 v -0.43 a 10.63,10.63 0 0 0 -2.3,-6.6 7,7 0 0 0 -5.56,-2.34 z"
       class="cls-3" />
    <path
       style="fill:#f7f7f7;fill-opacity:1;stroke:#ff0000;stroke-opacity:0"
       id="path90"
       d="m 540.89361,405.22253 a 8,8 0 0 0 5.23,-1.81 6.38,6.38 0 0 0 2.48,-4.54 h 5.29 a 10.17,10.17 0 0 1 -1.94,5.36 12.68,12.68 0 0 1 -4.76,4.05 13.8,13.8 0 0 1 -6.3,1.51 13.48,13.48 0 0 1 -10.62,-4.46 q -3.94,-4.46 -3.95,-12.2 v -0.94 a 19.82,19.82 0 0 1 1.75,-8.49 13.33,13.33 0 0 1 5,-5.77 14.28,14.28 0 0 1 7.75,-2.06 13.12,13.12 0 0 1 9.15,3.3 11.77,11.77 0 0 1 3.88,8.55 h -5.29 a 7.68,7.68 0 0 0 -2.4,-5.21 7.48,7.48 0 0 0 -5.34,-2 7.83,7.83 0 0 0 -6.6,3.06 c -1.56,2.05 -2.35,5 -2.35,8.88 v 1.05 q 0,5.65 2.33,8.71 a 7.88,7.88 0 0 0 6.69,3.01 z"
       class="cls-3" />
    <path
       style="fill:#f7f7f7;fill-opacity:1;stroke:#ff0000;stroke-opacity:0"
       id="path92"
       d="m 576.61361,381.49253 a 17,17 0 0 0 -2.75,-0.21 q -5.51,0 -7.47,4.69 v 23.21 h -5.59 v -32.7 h 5.44 l 0.09,3.77 a 8.7,8.7 0 0 1 7.8,-4.38 5.8,5.8 0 0 1 2.48,0.42 z"
       class="cls-3" />
    <path
       style="fill:#f7f7f7;fill-opacity:1;stroke:#ff0000;stroke-opacity:0"
       id="path94"
       d="m 602.56361,405.97253 q -3.27,3.84 -9.59,3.84 c -3.48,0 -6.14,-1 -8,-3 -1.86,-2 -2.75,-5 -2.77,-9 v -21.33 h 5.59 v 21.13 q 0,7.42 6,7.43 6.4,0 8.52,-4.77 v -23.79 h 5.6 v 32.7 h -5.23 z"
       class="cls-3" />
    <path
       style="fill:#f7f7f7;fill-opacity:1;stroke:#ff0000;stroke-opacity:0"
       id="path96"
       d="m 617.14361,367.80253 a 3.37,3.37 0 0 1 0.83,-2.3 3.75,3.75 0 0 1 4.94,0 3.29,3.29 0 0 1 0.85,2.3 3.18,3.18 0 0 1 -0.85,2.27 3.3,3.3 0 0 1 -5.77,-2.27 z m 6,41.38 h -5.6 v -32.7 h 5.6 z"
       class="cls-3" />
    <path
       style="fill:#f7f7f7;fill-opacity:1;stroke:#ff0000;stroke-opacity:0"
       id="path98"
       d="m 640.38361,368.56253 v 7.92 h 6.11 v 4.32 h -6.11 v 20.31 a 4.51,4.51 0 0 0 0.82,2.95 3.44,3.44 0 0 0 2.78,1 13.7,13.7 0 0 0 2.66,-0.36 v 4.51 a 16.32,16.32 0 0 1 -4.3,0.6 7,7 0 0 1 -5.65,-2.27 9.74,9.74 0 0 1 -1.9,-6.44 v -20.3 h -6 v -4.32 h 6 v -7.92 z"
       class="cls-3" />
    <path
       style="fill:#f7f7f7;fill-opacity:1;stroke:#ff0000;stroke-opacity:0"
       id="path100"
       d="m 653.62361,367.80253 a 3.33,3.33 0 0 1 0.84,-2.3 3.12,3.12 0 0 1 2.46,-0.93 3.19,3.19 0 0 1 2.48,0.93 3.33,3.33 0 0 1 0.84,2.3 3,3 0 0 1 -3.32,3.17 3.17,3.17 0 0 1 -2.46,-0.9 3.22,3.22 0 0 1 -0.84,-2.27 z m 6,41.38 h -5.54 v -32.7 h 5.59 z"
       class="cls-3" />
    <path
       style="fill:#f7f7f7;fill-opacity:1;stroke:#ff0000;stroke-opacity:0"
       id="path102"
       d="m 674.53361,376.48253 0.18,4.11 a 11.9,11.9 0 0 1 9.79,-4.72 q 10.36,0 10.46,11.7 v 21.61 h -5.58 v -21.64 q 0,-3.54 -1.62,-5.23 -1.62,-1.69 -4.94,-1.69 a 8.07,8.07 0 0 0 -4.78,1.45 9.69,9.69 0 0 0 -3.2,3.81 v 23.3 h -5.59 v -32.7 z"
       class="cls-3" />
    <path
       style="fill:#f7f7f7;fill-opacity:1;stroke:#ff0000;stroke-opacity:0"
       id="path104"
       d="m 702.68361,392.56253 q 0,-7.65 3.54,-12.17 a 12.19,12.19 0 0 1 18.71,-0.29 l 0.27,-3.62 h 5.11 v 31.92 q 0,6.35 -3.76,10 -3.76,3.65 -10.11,3.66 a 16.74,16.74 0 0 1 -6.92,-1.51 12,12 0 0 1 -5.17,-4.14 l 2.9,-3.36 a 10.94,10.94 0 0 0 8.79,4.44 8.57,8.57 0 0 0 6.37,-2.29 8.79,8.79 0 0 0 2.28,-6.47 v -2.76 a 11.5,11.5 0 0 1 -9.16,3.87 11.16,11.16 0 0 1 -9.29,-4.63 q -3.55,-4.67 -3.56,-12.65 z m 5.63,0.63 q 0,5.53 2.26,8.69 a 7.36,7.36 0 0 0 6.35,3.16 8.19,8.19 0 0 0 7.77,-4.8 v -14.94 a 8.28,8.28 0 0 0 -7.71,-4.68 7.42,7.42 0 0 0 -6.38,3.17 q -2.29,3.18 -2.29,9.4 z"
       class="cls-3" />
    <path
       style="fill:#f7f7f7;fill-opacity:1;stroke:#ff0000;stroke-opacity:0"
       id="path106"
       d="m 464.60361,385.10253 h -14.22 v 24.45 h -8 v -60.43 h 20 q 10.22,0 15.71,4.65 5.49,4.65 5.5,13.53 a 16.27,16.27 0 0 1 -3.05,9.83 18.12,18.12 0 0 1 -8.49,6.27 l 14.2,25.65 v 0.5 h -8.55 z m -14.22,-6.51 h 12.24 q 5.94,0 9.44,-3.08 a 10.4,10.4 0 0 0 3.51,-8.23 c 0,-3.75 -1.11,-6.61 -3.34,-8.61 -2.23,-2 -5.45,-3 -9.65,-3 h -12.2 z"
       class="cls-3" />
  </g>
</svg>
