<svg xmlns="http://www.w3.org/2000/svg" viewBox="0 0 850.39 850.39"><defs><style>.cls-1{fill:none;stroke:#92c466;stroke-miterlimit:10;stroke-width:2px;}.cls-2{fill:#92c466;}.cls-3{fill:#2a4b9b;}</style></defs><title>20.06.10 Yuri Antenna 5</title><g id="Text"><path class="cls-1" d="M227.77,385.45c-50.23.36-67.24-23.84-51.21-73.11Z"/><polygon class="cls-1" points="195.5 338.94 226.64 332.5 210.38 360.18 202.55 349.01 195.5 338.94"/><line class="cls-1" x1="226.64" y1="332.5" x2="202.07" y2="349.4"/><path class="cls-1" d="M238.17,305.49q17.78,6.48,18.31,25.13"/><path class="cls-1" d="M236.5,313.67q11.24,4.74,11.64,15.77"/><path class="cls-1" d="M234.85,320.79q6,2.68,6.22,8.53"/><line class="cls-1" x1="224.25" y1="327.29" x2="230.91" y2="336.42"/><path class="cls-2" d="M213.55,404.43l.18,4.11a11.9,11.9,0,0,1,9.79-4.72q10.38,0,10.46,11.7v21.61h-5.59V415.49q0-3.54-1.62-5.23c-1.06-1.13-2.7-1.69-4.94-1.69a8.07,8.07,0,0,0-4.78,1.45,9.92,9.92,0,0,0-3.2,3.81v23.3h-5.59v-32.7Z"/><path class="cls-2" d="M250.62,396.51v7.92h6.11v4.32h-6.11v20.31a4.57,4.57,0,0,0,.82,2.95,3.44,3.44,0,0,0,2.78,1,13.7,13.7,0,0,0,2.66-.36v4.51a16.31,16.31,0,0,1-4.29.6,7,7,0,0,1-5.65-2.27A9.74,9.74,0,0,1,245,429V408.75h-5.95v-4.32H245v-7.92Z"/><path class="cls-2" d="M277.45,437.74a14.3,14.3,0,0,1-10.82-4.37q-4.17-4.37-4.17-11.68v-1a19.6,19.6,0,0,1,1.86-8.69,14.47,14.47,0,0,1,5.19-6,13.11,13.11,0,0,1,7.24-2.16q6.39,0,9.92,4.2c2.36,2.8,3.54,6.82,3.54,12v2.33H268.05a11.65,11.65,0,0,0,2.82,7.82,8.91,8.91,0,0,0,6.88,3,9.7,9.7,0,0,0,5-1.21,12.55,12.55,0,0,0,3.6-3.2l3.41,2.66Q285.67,437.74,277.45,437.74Zm-.7-29.32a7.47,7.47,0,0,0-5.68,2.46,12,12,0,0,0-2.84,6.91h16.38v-.43a10.63,10.63,0,0,0-2.29-6.6A7,7,0,0,0,276.75,408.42Z"/><path class="cls-2" d="M302.58,404.43l.19,4.11a11.89,11.89,0,0,1,9.79-4.72q10.37,0,10.46,11.7v21.61h-5.59V415.49q0-3.54-1.62-5.23t-4.94-1.69a8,8,0,0,0-4.78,1.45,9.83,9.83,0,0,0-3.2,3.81v23.3h-5.6v-32.7Z"/><path class="cls-2" d="M337.36,404.43l.18,4.11a11.92,11.92,0,0,1,9.8-4.72q10.37,0,10.46,11.7v21.61h-5.6V415.49q0-3.54-1.61-5.23t-4.95-1.69a8,8,0,0,0-4.77,1.45,9.94,9.94,0,0,0-3.21,3.81v23.3h-5.59v-32.7Z"/><path class="cls-2" d="M387,437.13a11.75,11.75,0,0,1-.78-3.44,12.49,12.49,0,0,1-9.31,4.05A11.53,11.53,0,0,1,369,435a8.83,8.83,0,0,1-3.1-6.94,9.24,9.24,0,0,1,3.89-7.93q3.88-2.82,10.92-2.83h5.44v-2.57a6.28,6.28,0,0,0-1.75-4.67,7,7,0,0,0-5.17-1.73,8.15,8.15,0,0,0-5,1.51,4.44,4.44,0,0,0-2,3.65h-5.62a7.73,7.73,0,0,1,1.74-4.73,11.86,11.86,0,0,1,4.71-3.61,16,16,0,0,1,6.54-1.33c3.77,0,6.73.94,8.86,2.83a10.18,10.18,0,0,1,3.33,7.78v15.06a18.3,18.3,0,0,0,1.15,7.16v.48Zm-9.28-4.26a9.81,9.81,0,0,0,5-1.36,8.17,8.17,0,0,0,3.41-3.54v-6.71h-4.38q-10.27,0-10.28,6a5.1,5.1,0,0,0,1.76,4.11A6.72,6.72,0,0,0,377.76,432.87Z"/><path class="cls-3" d="M191.66,477.47l.42,2.9.62-2.62,4.36-15.37h2.45l4.26,15.37.6,2.67.47-3,3.42-15.07h2.92l-5.34,22h-2.65l-4.54-16.06-.35-1.68-.35,1.68-4.7,16.06H190.6l-5.33-22h2.91Z"/><path class="cls-3" d="M223.4,484.72a7.15,7.15,0,0,1-5.42-2.19,8.09,8.09,0,0,1-2.09-5.85v-.52a9.85,9.85,0,0,1,.93-4.35,7.3,7.3,0,0,1,2.6-3,6.6,6.6,0,0,1,3.63-1.09,6.1,6.1,0,0,1,5,2.11,9.1,9.1,0,0,1,1.77,6V477H218.69a5.83,5.83,0,0,0,1.41,3.91,4.49,4.49,0,0,0,3.45,1.49,4.91,4.91,0,0,0,2.51-.6,6.25,6.25,0,0,0,1.8-1.61l1.71,1.33A6.87,6.87,0,0,1,223.4,484.72ZM223.05,470a3.76,3.76,0,0,0-2.85,1.24,6,6,0,0,0-1.42,3.46H227v-.21a5.29,5.29,0,0,0-1.15-3.31A3.51,3.51,0,0,0,223.05,470Z"/><path class="cls-3" d="M249.94,484.41h-2.8V461.16h2.8Z"/><path class="cls-3" d="M256.78,476.07a9.59,9.59,0,0,1,1-4.33,7,7,0,0,1,6.48-4,6.91,6.91,0,0,1,5.41,2.32,8.9,8.9,0,0,1,2.07,6.16v.2a9.79,9.79,0,0,1-.92,4.29,7,7,0,0,1-2.61,3,7.33,7.33,0,0,1-3.92,1.06,6.85,6.85,0,0,1-5.39-2.32,8.85,8.85,0,0,1-2.07-6.13Zm2.82.34a7,7,0,0,0,1.26,4.37,4.28,4.28,0,0,0,6.77,0,7.67,7.67,0,0,0,1.26-4.69,7,7,0,0,0-1.28-4.36,4.24,4.24,0,0,0-6.74,0A7.61,7.61,0,0,0,259.6,476.41Z"/><path class="cls-3" d="M284.87,482.43a4,4,0,0,0,2.62-.91,3.17,3.17,0,0,0,1.24-2.27h2.65a5,5,0,0,1-1,2.68,6.3,6.3,0,0,1-2.38,2,6.85,6.85,0,0,1-3.16.76,6.75,6.75,0,0,1-5.32-2.24,8.85,8.85,0,0,1-2-6.1v-.47a10,10,0,0,1,.88-4.26,6.77,6.77,0,0,1,2.52-2.89,7.24,7.24,0,0,1,3.89-1,6.55,6.55,0,0,1,4.57,1.65,5.89,5.89,0,0,1,1.95,4.29h-2.65a3.85,3.85,0,0,0-1.2-2.61,3.76,3.76,0,0,0-2.67-1,3.93,3.93,0,0,0-3.31,1.54,7.25,7.25,0,0,0-1.17,4.44v.53a7.05,7.05,0,0,0,1.16,4.36A3.94,3.94,0,0,0,284.87,482.43Z"/><path class="cls-3" d="M307.74,484.41a6.09,6.09,0,0,1-.4-1.72,6.24,6.24,0,0,1-4.66,2,5.79,5.79,0,0,1-4-1.37,4.42,4.42,0,0,1-1.55-3.48,4.64,4.64,0,0,1,1.94-4,9.2,9.2,0,0,1,5.47-1.42h2.73V473.2a3.13,3.13,0,0,0-.88-2.34,3.53,3.53,0,0,0-2.59-.87,4,4,0,0,0-2.51.76,2.23,2.23,0,0,0-1,1.83h-2.82a3.86,3.86,0,0,1,.87-2.37,6,6,0,0,1,2.36-1.81,8,8,0,0,1,3.28-.67,6.46,6.46,0,0,1,4.43,1.42,5.1,5.1,0,0,1,1.67,3.9v7.53a9.29,9.29,0,0,0,.57,3.59v.24Zm-4.65-2.13a5,5,0,0,0,2.5-.68,4.1,4.1,0,0,0,1.71-1.77v-3.36h-2.2q-5.14,0-5.14,3a2.54,2.54,0,0,0,.88,2.06A3.37,3.37,0,0,0,303.09,482.28Z"/><path class="cls-3" d="M321.39,464.07v4h3.06v2.16h-3.06v10.17a2.23,2.23,0,0,0,.41,1.48,1.7,1.7,0,0,0,1.39.49,6.8,6.8,0,0,0,1.33-.18v2.26a8.13,8.13,0,0,1-2.15.3,3.49,3.49,0,0,1-2.83-1.14,4.91,4.91,0,0,1-1-3.22V470.2h-3V468h3v-4Z"/><path class="cls-3" d="M337.61,484.72a7.15,7.15,0,0,1-5.42-2.19,8.14,8.14,0,0,1-2.09-5.85v-.52a9.72,9.72,0,0,1,.94-4.35,7.23,7.23,0,0,1,2.6-3,6.54,6.54,0,0,1,3.62-1.09,6.12,6.12,0,0,1,5,2.11,9.1,9.1,0,0,1,1.77,6V477H332.91a5.78,5.78,0,0,0,1.41,3.91,4.45,4.45,0,0,0,3.44,1.49,5,5,0,0,0,2.52-.6,6.52,6.52,0,0,0,1.8-1.61l1.71,1.33A6.89,6.89,0,0,1,337.61,484.72ZM337.26,470a3.73,3.73,0,0,0-2.84,1.24,6,6,0,0,0-1.43,3.46h8.21v-.21a5.29,5.29,0,0,0-1.15-3.31A3.54,3.54,0,0,0,337.26,470Z"/><path class="cls-3" d="M371.23,484.41a5.46,5.46,0,0,1-.4-1.72,6.24,6.24,0,0,1-4.66,2,5.79,5.79,0,0,1-4-1.37,4.42,4.42,0,0,1-1.55-3.48,4.61,4.61,0,0,1,1.94-4,9.2,9.2,0,0,1,5.47-1.42h2.73V473.2a3.17,3.17,0,0,0-.88-2.34,3.54,3.54,0,0,0-2.59-.87,4,4,0,0,0-2.51.76,2.21,2.21,0,0,0-1,1.83H361a3.86,3.86,0,0,1,.87-2.37,6,6,0,0,1,2.36-1.81,8,8,0,0,1,3.28-.67,6.49,6.49,0,0,1,4.43,1.42,5.1,5.1,0,0,1,1.67,3.9v7.53a9.29,9.29,0,0,0,.57,3.59v.24Zm-4.65-2.13a4.91,4.91,0,0,0,2.49-.68,4.18,4.18,0,0,0,1.72-1.77v-3.36h-2.2q-5.14,0-5.15,3a2.57,2.57,0,0,0,.88,2.06A3.42,3.42,0,0,0,366.58,482.28Z"/><path class="cls-3" d="M383.72,468l.1,2.06a6,6,0,0,1,4.9-2.37c3.46,0,5.21,2,5.24,5.86v10.82h-2.8V473.58a3.76,3.76,0,0,0-.81-2.62,3.24,3.24,0,0,0-2.48-.85,4,4,0,0,0-2.39.73,4.86,4.86,0,0,0-1.6,1.9v11.67h-2.81V468Z"/><path class="cls-3" d="M400.6,476.09a9.54,9.54,0,0,1,1.79-6.06,6.07,6.07,0,0,1,9.23-.33v-8.54h2.8v23.25h-2.57l-.14-1.75a5.71,5.71,0,0,1-4.68,2.06,5.62,5.62,0,0,1-4.64-2.33,9.77,9.77,0,0,1-1.79-6.09Zm2.8.32a7.26,7.26,0,0,0,1.15,4.36,3.72,3.72,0,0,0,3.18,1.57,4.1,4.1,0,0,0,3.89-2.39v-7.52a4.12,4.12,0,0,0-3.86-2.32,3.74,3.74,0,0,0-3.21,1.59A8,8,0,0,0,403.4,476.41Z"/><path class="cls-3" d="M440.55,470.55a8.36,8.36,0,0,0-1.37-.11,3.69,3.69,0,0,0-3.74,2.35v11.62h-2.8V468h2.72l.05,1.89a4.36,4.36,0,0,1,3.9-2.2,2.7,2.7,0,0,1,1.24.22Z"/><path class="cls-3" d="M452.74,484.72a7.13,7.13,0,0,1-5.42-2.19,8.09,8.09,0,0,1-2.09-5.85v-.52a9.85,9.85,0,0,1,.93-4.35,7.3,7.3,0,0,1,2.6-3,6.57,6.57,0,0,1,3.63-1.09,6.1,6.1,0,0,1,5,2.11,9.1,9.1,0,0,1,1.77,6V477H448a5.83,5.83,0,0,0,1.41,3.91,4.47,4.47,0,0,0,3.45,1.49,4.91,4.91,0,0,0,2.51-.6,6.39,6.39,0,0,0,1.8-1.61l1.71,1.33A6.87,6.87,0,0,1,452.74,484.72ZM452.39,470a3.76,3.76,0,0,0-2.85,1.24,5.94,5.94,0,0,0-1.42,3.46h8.2v-.21a5.29,5.29,0,0,0-1.15-3.31A3.51,3.51,0,0,0,452.39,470Z"/><path class="cls-3" d="M468.5,484.41h-2.8V461.16h2.8Z"/><path class="cls-3" d="M475.34,476.07a9.73,9.73,0,0,1,1-4.33,7,7,0,0,1,6.49-4,6.92,6.92,0,0,1,5.41,2.32,8.89,8.89,0,0,1,2.06,6.16v.2a9.78,9.78,0,0,1-.91,4.29,7,7,0,0,1-2.62,3,7.32,7.32,0,0,1-3.91,1.06,6.88,6.88,0,0,1-5.4-2.32,8.85,8.85,0,0,1-2.07-6.13Zm2.82.34a7,7,0,0,0,1.26,4.37,4.29,4.29,0,0,0,6.78,0,7.67,7.67,0,0,0,1.25-4.69,6.93,6.93,0,0,0-1.28-4.36,4.24,4.24,0,0,0-6.74,0A7.61,7.61,0,0,0,478.16,476.41Z"/><path class="cls-3" d="M503.43,482.43a4,4,0,0,0,2.62-.91,3.21,3.21,0,0,0,1.25-2.27h2.64a5.11,5.11,0,0,1-1,2.68,6.41,6.41,0,0,1-2.39,2,7.26,7.26,0,0,1-8.48-1.48,8.89,8.89,0,0,1-2-6.1v-.47a9.8,9.8,0,0,1,.88-4.26,6.65,6.65,0,0,1,2.52-2.89,7.2,7.2,0,0,1,3.88-1,6.57,6.57,0,0,1,4.58,1.65,5.92,5.92,0,0,1,1.94,4.29H507.3a3.91,3.91,0,0,0-1.21-2.61,3.75,3.75,0,0,0-2.67-1,3.94,3.94,0,0,0-3.31,1.54,7.25,7.25,0,0,0-1.17,4.44v.53a7.12,7.12,0,0,0,1.16,4.36A3.94,3.94,0,0,0,503.43,482.43Z"/><path class="cls-3" d="M526.3,484.41a5.83,5.83,0,0,1-.39-1.72,6.24,6.24,0,0,1-4.66,2,5.81,5.81,0,0,1-4-1.37,4.46,4.46,0,0,1-1.55-3.48,4.62,4.62,0,0,1,1.95-4,9.2,9.2,0,0,1,5.47-1.42h2.72V473.2a3.16,3.16,0,0,0-.87-2.34,3.54,3.54,0,0,0-2.59-.87,4,4,0,0,0-2.51.76,2.21,2.21,0,0,0-1,1.83h-2.81a3.86,3.86,0,0,1,.87-2.37,5.88,5.88,0,0,1,2.36-1.81,8,8,0,0,1,3.28-.67,6.49,6.49,0,0,1,4.43,1.42,5.06,5.06,0,0,1,1.66,3.9v7.53a9.27,9.27,0,0,0,.58,3.59v.24Zm-4.64-2.13a5,5,0,0,0,2.5-.68,4.13,4.13,0,0,0,1.7-1.77v-3.36h-2.19q-5.14,0-5.15,3a2.57,2.57,0,0,0,.88,2.06A3.42,3.42,0,0,0,521.66,482.28Z"/><path class="cls-3" d="M540,464.07v4H543v2.16H540v10.17a2.29,2.29,0,0,0,.41,1.48,1.73,1.73,0,0,0,1.39.49,6.88,6.88,0,0,0,1.34-.18v2.26a8.25,8.25,0,0,1-2.15.3,3.47,3.47,0,0,1-2.83-1.14,4.85,4.85,0,0,1-1-3.22V470.2h-3V468h3v-4Z"/><path class="cls-3" d="M556.18,484.72a7.15,7.15,0,0,1-5.42-2.19,8.09,8.09,0,0,1-2.09-5.85v-.52a9.85,9.85,0,0,1,.93-4.35,7.3,7.3,0,0,1,2.6-3,6.6,6.6,0,0,1,3.63-1.09,6.1,6.1,0,0,1,5,2.11,9.1,9.1,0,0,1,1.77,6V477H551.47a5.83,5.83,0,0,0,1.41,3.91,4.47,4.47,0,0,0,3.45,1.49,4.88,4.88,0,0,0,2.51-.6,6.25,6.25,0,0,0,1.8-1.61l1.71,1.33A6.87,6.87,0,0,1,556.18,484.72ZM555.83,470a3.76,3.76,0,0,0-2.85,1.24,6,6,0,0,0-1.42,3.46h8.2v-.21a5.29,5.29,0,0,0-1.15-3.31A3.51,3.51,0,0,0,555.83,470Z"/><path class="cls-3" d="M583.48,464.07v4h3.06v2.16h-3.06v10.17a2.23,2.23,0,0,0,.41,1.48,1.7,1.7,0,0,0,1.39.49,6.8,6.8,0,0,0,1.33-.18v2.26a8.19,8.19,0,0,1-2.15.3,3.49,3.49,0,0,1-2.83-1.14,4.85,4.85,0,0,1-1-3.22V470.2h-3V468h3v-4Z"/><path class="cls-3" d="M603,484.41a5.76,5.76,0,0,1-.4-1.72,6.24,6.24,0,0,1-4.66,2,5.79,5.79,0,0,1-4-1.37,4.42,4.42,0,0,1-1.55-3.48,4.61,4.61,0,0,1,1.94-4,9.2,9.2,0,0,1,5.47-1.42h2.73V473.2a3.13,3.13,0,0,0-.88-2.34,3.54,3.54,0,0,0-2.59-.87,4,4,0,0,0-2.51.76,2.21,2.21,0,0,0-1,1.83h-2.81a3.86,3.86,0,0,1,.87-2.37A6,6,0,0,1,596,468.4a8,8,0,0,1,3.28-.67,6.49,6.49,0,0,1,4.43,1.42,5.1,5.1,0,0,1,1.67,3.9v7.53a9.29,9.29,0,0,0,.57,3.59v.24Zm-4.65-2.13a5,5,0,0,0,2.5-.68,4.1,4.1,0,0,0,1.71-1.77v-3.36h-2.2q-5.14,0-5.14,3a2.57,2.57,0,0,0,.87,2.06A3.42,3.42,0,0,0,598.37,482.28Z"/><path class="cls-3" d="M615.91,484.41h-2.8V461.16h2.8Z"/><path class="cls-3" d="M630.29,484.72a7.15,7.15,0,0,1-5.42-2.19,8.09,8.09,0,0,1-2.09-5.85v-.52a9.85,9.85,0,0,1,.93-4.35,7.3,7.3,0,0,1,2.6-3,6.6,6.6,0,0,1,3.63-1.09,6.1,6.1,0,0,1,5,2.11,9.1,9.1,0,0,1,1.77,6V477H625.58a5.83,5.83,0,0,0,1.41,3.91,4.47,4.47,0,0,0,3.45,1.49,4.91,4.91,0,0,0,2.51-.6,6.25,6.25,0,0,0,1.8-1.61l1.71,1.33A6.87,6.87,0,0,1,630.29,484.72ZM629.94,470a3.76,3.76,0,0,0-2.85,1.24,5.94,5.94,0,0,0-1.42,3.46h8.2v-.21a5.29,5.29,0,0,0-1.15-3.31A3.51,3.51,0,0,0,629.94,470Z"/><path class="cls-3" d="M645.66,468l.09,2.06a6,6,0,0,1,4.91-2.37c3.46,0,5.21,2,5.24,5.86v10.82h-2.81V473.58a3.76,3.76,0,0,0-.8-2.62,3.26,3.26,0,0,0-2.48-.85,4,4,0,0,0-2.39.73,4.86,4.86,0,0,0-1.6,1.9v11.67H643V468Z"/><path class="cls-3" d="M667,464.07v4h3.05v2.16H667v10.17a2.23,2.23,0,0,0,.41,1.48,1.7,1.7,0,0,0,1.39.49,6.9,6.9,0,0,0,1.33-.18v2.26a8.19,8.19,0,0,1-2.15.3,3.49,3.49,0,0,1-2.83-1.14,4.85,4.85,0,0,1-.95-3.22V470.2h-3V468h3v-4Z"/><path class="cls-3" d="M686,480.07a2,2,0,0,0-.85-1.76,8.2,8.2,0,0,0-3-1.08,14.64,14.64,0,0,1-3.37-1.09,4.87,4.87,0,0,1-1.85-1.52,3.6,3.6,0,0,1-.6-2.09,4.24,4.24,0,0,1,1.71-3.4,6.62,6.62,0,0,1,4.35-1.4,6.84,6.84,0,0,1,4.52,1.44,4.59,4.59,0,0,1,1.73,3.68h-2.82a2.51,2.51,0,0,0-1-2,3.63,3.63,0,0,0-2.46-.84,3.84,3.84,0,0,0-2.39.67,2.09,2.09,0,0,0-.87,1.74,1.69,1.69,0,0,0,.81,1.53,9.85,9.85,0,0,0,2.89,1,15.7,15.7,0,0,1,3.4,1.12,5,5,0,0,1,1.93,1.57,3.85,3.85,0,0,1,.63,2.23,4.16,4.16,0,0,1-1.76,3.52,7.3,7.3,0,0,1-4.55,1.33A8.31,8.31,0,0,1,679,484a5.64,5.64,0,0,1-2.37-1.94,4.73,4.73,0,0,1-.86-2.71h2.8a2.92,2.92,0,0,0,1.13,2.24,4.38,4.38,0,0,0,2.78.82,4.5,4.5,0,0,0,2.55-.64A2,2,0,0,0,686,480.07Z"/><path class="cls-2" d="M187.84,420.63H161l-6,16.74h-8.7l24.43-64h7.38l24.48,64h-8.66Zm-24.26-6.9h21.75l-10.9-29.93Z"/><path class="cls-3" d="M487.55,437.82a14.28,14.28,0,0,1-10.82-4.37q-4.17-4.36-4.17-11.68v-1a19.6,19.6,0,0,1,1.85-8.69,14.56,14.56,0,0,1,5.2-6,13.09,13.09,0,0,1,7.24-2.16q6.38,0,9.92,4.2t3.53,12v2.33H478.15a11.63,11.63,0,0,0,2.82,7.81,8.89,8.89,0,0,0,6.88,3,9.72,9.72,0,0,0,5-1.21,12.55,12.55,0,0,0,3.6-3.2l3.41,2.66Q495.77,437.81,487.55,437.82Zm-.7-29.32a7.45,7.45,0,0,0-5.68,2.46,12,12,0,0,0-2.84,6.91h16.38v-.43a10.63,10.63,0,0,0-2.3-6.6A7,7,0,0,0,486.85,408.5Z"/><path class="cls-3" d="M520.51,433.25a8,8,0,0,0,5.23-1.81,6.38,6.38,0,0,0,2.48-4.54h5.29a10.17,10.17,0,0,1-1.94,5.36,12.68,12.68,0,0,1-4.76,4.05,13.8,13.8,0,0,1-6.3,1.51,13.48,13.48,0,0,1-10.62-4.46q-3.94-4.46-3.95-12.2v-.94a19.82,19.82,0,0,1,1.75-8.49,13.33,13.33,0,0,1,5-5.77,14.28,14.28,0,0,1,7.75-2.06,13.12,13.12,0,0,1,9.15,3.3,11.77,11.77,0,0,1,3.88,8.55h-5.29a7.68,7.68,0,0,0-2.4-5.21,7.48,7.48,0,0,0-5.34-2,7.83,7.83,0,0,0-6.6,3.06c-1.56,2.05-2.35,5-2.35,8.88v1.05q0,5.65,2.33,8.71A7.88,7.88,0,0,0,520.51,433.25Z"/><path class="cls-3" d="M556.23,409.52a17,17,0,0,0-2.75-.21q-5.51,0-7.47,4.69v23.21h-5.59v-32.7h5.44l.09,3.77a8.7,8.7,0,0,1,7.8-4.38,5.8,5.8,0,0,1,2.48.42Z"/><path class="cls-3" d="M582.18,434q-3.27,3.84-9.59,3.84c-3.48,0-6.14-1-8-3s-2.75-5-2.77-9V404.51h5.59v21.13q0,7.42,6,7.43,6.4,0,8.52-4.77V404.51h5.6v32.7H582.3Z"/><path class="cls-3" d="M596.76,395.83a3.37,3.37,0,0,1,.83-2.3,3.75,3.75,0,0,1,4.94,0,3.29,3.29,0,0,1,.85,2.3,3.18,3.18,0,0,1-.85,2.27,3.3,3.3,0,0,1-5.77-2.27Zm6,41.38h-5.6v-32.7h5.6Z"/><path class="cls-3" d="M620,396.59v7.92h6.11v4.32H620v20.31a4.51,4.51,0,0,0,.82,2.95,3.44,3.44,0,0,0,2.78,1,13.7,13.7,0,0,0,2.66-.36v4.51a16.32,16.32,0,0,1-4.3.6,7,7,0,0,1-5.65-2.27,9.74,9.74,0,0,1-1.9-6.44V408.83h-6v-4.32h6v-7.92Z"/><path class="cls-3" d="M633.24,395.83a3.33,3.33,0,0,1,.84-2.3,3.12,3.12,0,0,1,2.46-.93,3.19,3.19,0,0,1,2.48.93,3.33,3.33,0,0,1,.84,2.3,3,3,0,0,1-3.32,3.17,3.17,3.17,0,0,1-2.46-.9A3.22,3.22,0,0,1,633.24,395.83Zm6,41.38H633.7v-32.7h5.59Z"/><path class="cls-3" d="M654.15,404.51l.18,4.11a11.9,11.9,0,0,1,9.79-4.72q10.36,0,10.46,11.7v21.61H669V415.57q0-3.54-1.62-5.23t-4.94-1.69a8.07,8.07,0,0,0-4.78,1.45,9.69,9.69,0,0,0-3.2,3.81v23.3h-5.59v-32.7Z"/><path class="cls-3" d="M682.3,420.59q0-7.65,3.54-12.17a12.19,12.19,0,0,1,18.71-.29l.27-3.62h5.11v31.92q0,6.35-3.76,10t-10.11,3.66a16.74,16.74,0,0,1-6.92-1.51,12,12,0,0,1-5.17-4.14l2.9-3.36a10.94,10.94,0,0,0,8.79,4.44,8.57,8.57,0,0,0,6.37-2.29,8.79,8.79,0,0,0,2.28-6.47V434a11.5,11.5,0,0,1-9.16,3.87,11.16,11.16,0,0,1-9.29-4.63Q682.31,428.57,682.3,420.59Zm5.63.63q0,5.53,2.26,8.69a7.36,7.36,0,0,0,6.35,3.16,8.19,8.19,0,0,0,7.77-4.8V413.33a8.28,8.28,0,0,0-7.71-4.68,7.42,7.42,0,0,0-6.38,3.17Q687.93,415,687.93,421.22Z"/><path class="cls-3" d="M444.22,413.13H430v24.45h-8V377.15h20q10.22,0,15.71,4.65t5.5,13.53a16.27,16.27,0,0,1-3.05,9.83,18.12,18.12,0,0,1-8.49,6.27l14.2,25.65v.5h-8.55ZM430,406.62h12.24q5.94,0,9.44-3.08a10.4,10.4,0,0,0,3.51-8.23c0-3.75-1.11-6.61-3.34-8.61s-5.45-3-9.65-3H430Z"/></g></svg>