<?xml version="1.0" encoding="UTF-8" standalone="no"?>
<!-- Created with Inkscape (http://www.inkscape.org/) -->

<svg
   xmlns:dc="http://purl.org/dc/elements/1.1/"
   xmlns:cc="http://creativecommons.org/ns#"
   xmlns:rdf="http://www.w3.org/1999/02/22-rdf-syntax-ns#"
   xmlns:svg="http://www.w3.org/2000/svg"
   xmlns="http://www.w3.org/2000/svg"
   xmlns:sodipodi="http://sodipodi.sourceforge.net/DTD/sodipodi-0.dtd"
   xmlns:inkscape="http://www.inkscape.org/namespaces/inkscape"
   width="151mm"
   height="39mm"
   viewBox="0 0 151 39"
   version="1.1"
   id="svg966"
   inkscape:version="0.92.3 (2405546, 2018-03-11)"
   sodipodi:docname="logo-inline.svg">
  <defs
     id="defs960" />
  <sodipodi:namedview
     id="base"
     pagecolor="#ffffff"
     bordercolor="#666666"
     borderopacity="1.0"
     inkscape:pageopacity="0.0"
     inkscape:pageshadow="2"
     inkscape:zoom="1.979899"
     inkscape:cx="-147.34629"
     inkscape:cy="248.90665"
     inkscape:document-units="mm"
     inkscape:current-layer="layer1"
     showgrid="false"
     inkscape:window-width="3840"
     inkscape:window-height="2004"
     inkscape:window-x="-16"
     inkscape:window-y="-16"
     inkscape:window-maximized="1" />
  <metadata
     id="metadata963">
    <rdf:RDF>
      <cc:Work
         rdf:about="">
        <dc:format>image/svg+xml</dc:format>
        <dc:type
           rdf:resource="http://purl.org/dc/dcmitype/StillImage" />
        <dc:title></dc:title>
      </cc:Work>
    </rdf:RDF>
  </metadata>
  <g
     inkscape:label="Layer 1"
     inkscape:groupmode="layer"
     id="layer1"
     transform="translate(0,-258)">
    <g
       id="g1620"
       transform="translate(-27.36548,84.893452)">
      <path
         class="cls-1"
         d="M 49.423601,193.88464 C 36.13358,193.97989 31.633018,187.57697 35.874288,174.54095 Z"
         id="path8"
         inkscape:connector-curvature="0"
         style="fill:none;stroke:#6da83e;stroke-width:0.52916664px;stroke-miterlimit:10;stroke-opacity:1" />
      <path
         inkscape:connector-curvature="0"
         id="polygon10"
         d="m 42.750809,184.24322 -1.865312,-2.66435 8.239125,-1.70392 -4.302125,7.32367 z"
         style="fill:none;stroke:#6da83e;stroke-width:0.52916664px;stroke-miterlimit:10;stroke-opacity:1" />
      <path
         inkscape:connector-curvature="0"
         id="line12"
         d="m 49.124622,179.87495 -6.500813,4.47146"
         style="fill:none;stroke:#6da83e;stroke-width:0.52916664px;stroke-miterlimit:10;stroke-opacity:1" />
      <path
         class="cls-1"
         d="m 52.175267,172.72856 q 4.704292,1.7145 4.844521,6.64898"
         id="path14"
         inkscape:connector-curvature="0"
         style="fill:none;stroke:#6da83e;stroke-width:0.52916664px;stroke-miterlimit:10;stroke-opacity:1" />
      <path
         class="cls-1"
         d="m 51.733413,174.89285 q 2.973917,1.25412 3.07975,4.17248"
         id="path16"
         inkscape:connector-curvature="0"
         style="fill:none;stroke:#6da83e;stroke-width:0.52916664px;stroke-miterlimit:10;stroke-opacity:1" />
      <path
         class="cls-1"
         d="m 51.296851,176.77668 q 1.5875,0.70909 1.645708,2.2569"
         id="path18"
         inkscape:connector-curvature="0"
         style="fill:none;stroke:#6da83e;stroke-width:0.52916664px;stroke-miterlimit:10;stroke-opacity:1" />
      <path
         inkscape:connector-curvature="0"
         id="line20"
         d="m 48.492267,178.49648 1.762125,2.41565"
         style="fill:none;stroke:#6da83e;stroke-width:0.52916664px;stroke-miterlimit:10;stroke-opacity:1" />
      <path
         class="cls-2"
         d="m 45.661226,198.90643 0.04763,1.08744 a 3.1485416,3.1485416 0 0 1 2.590271,-1.24883 q 2.746374,0 2.767541,3.09562 v 5.71765 h -1.479021 v -5.72559 q 0,-0.93662 -0.428625,-1.38377 c -0.280458,-0.29898 -0.714375,-0.44714 -1.307041,-0.44714 a 2.1351875,2.1351875 0 0 0 -1.264709,0.38364 2.6246666,2.6246666 0 0 0 -0.846666,1.00807 v 6.16479 H 44.26158 v -8.65188 z"
         id="path22"
         inkscape:connector-curvature="0"
         style="fill:#6da83e;fill-opacity:1;stroke-width:0.26458332" />
      <path
         class="cls-2"
         d="m 55.46933,196.81093 v 2.0955 h 1.616604 v 1.143 H 55.46933 v 5.37369 a 1.2091458,1.2091458 0 0 0 0.216958,0.78052 0.91016666,0.91016666 0 0 0 0.735542,0.26458 3.6247916,3.6247916 0 0 0 0.703791,-0.0952 v 1.19328 a 4.3153541,4.3153541 0 0 1 -1.135062,0.15875 1.8520833,1.8520833 0 0 1 -1.494896,-0.60061 2.5770416,2.5770416 0 0 1 -0.513292,-1.71714 v -5.35782 h -1.57427 v -1.143 h 1.57427 v -2.0955 z"
         id="path24"
         inkscape:connector-curvature="0"
         style="fill:#6da83e;fill-opacity:1;stroke-width:0.26458332" />
      <path
         class="cls-2"
         d="m 62.5681,207.7197 a 3.7835416,3.7835416 0 0 1 -2.862791,-1.15623 q -1.103313,-1.15622 -1.103313,-3.09033 v -0.26458 a 5.1858333,5.1858333 0 0 1 0.492125,-2.29923 3.8285208,3.8285208 0 0 1 1.373188,-1.5875 3.4686875,3.4686875 0 0 1 1.915583,-0.5715 q 1.690688,0 2.624667,1.11125 c 0.624416,0.74083 0.936625,1.80446 0.936625,3.175 v 0.61648 h -5.863167 a 3.0823958,3.0823958 0 0 0 0.746125,2.06904 2.3574375,2.3574375 0 0 0 1.820333,0.79375 2.5664583,2.5664583 0 0 0 1.322917,-0.32015 3.3205208,3.3205208 0 0 0 0.9525,-0.84666 l 0.902229,0.70379 q -1.082146,1.66687 -3.257021,1.66687 z m -0.185208,-7.75758 a 1.9764375,1.9764375 0 0 0 -1.502833,0.65088 3.175,3.175 0 0 0 -0.751417,1.82827 h 4.333875 v -0.11377 a 2.8125208,2.8125208 0 0 0 -0.605896,-1.74625 1.8520833,1.8520833 0 0 0 -1.473729,-0.61913 z"
         id="path26"
         inkscape:connector-curvature="0"
         style="fill:#6da83e;fill-opacity:1;stroke-width:0.26458332" />
      <path
         class="cls-2"
         d="m 69.21708,198.90643 0.05027,1.08744 a 3.1458958,3.1458958 0 0 1 2.590271,-1.24883 q 2.743729,0 2.767542,3.09562 v 5.71765 h -1.479021 v -5.72559 q 0,-0.93662 -0.428625,-1.38377 -0.428625,-0.44714 -1.307042,-0.44714 a 2.1166666,2.1166666 0 0 0 -1.264708,0.38364 2.6008541,2.6008541 0 0 0 -0.846667,1.00807 v 6.16479 h -1.481666 v -8.65188 z"
         id="path28"
         inkscape:connector-curvature="0"
         style="fill:#6da83e;fill-opacity:1;stroke-width:0.26458332" />
      <path
         class="cls-2"
         d="m 78.419288,198.90643 0.04763,1.08744 a 3.1538333,3.1538333 0 0 1 2.592916,-1.24883 q 2.74373,0 2.767542,3.09562 v 5.71765 h -1.481667 v -5.72559 q 0,-0.93662 -0.425979,-1.38377 -0.425979,-0.44714 -1.309687,-0.44714 a 2.1166666,2.1166666 0 0 0 -1.262063,0.38364 2.6299583,2.6299583 0 0 0 -0.849312,1.00807 v 6.16479 h -1.479021 v -8.65188 z"
         id="path30"
         inkscape:connector-curvature="0"
         style="fill:#6da83e;fill-opacity:1;stroke-width:0.26458332" />
      <path
         class="cls-2"
         d="m 91.553204,207.55831 a 3.1088541,3.1088541 0 0 1 -0.206375,-0.91017 3.3046458,3.3046458 0 0 1 -2.46327,1.07156 3.0506458,3.0506458 0 0 1 -2.092855,-0.72495 2.3362708,2.3362708 0 0 1 -0.820208,-1.83621 2.44475,2.44475 0 0 1 1.029229,-2.09815 q 1.026584,-0.74612 2.88925,-0.74877 h 1.439333 v -0.67998 a 1.6615833,1.6615833 0 0 0 -0.46302,-1.2356 1.8520833,1.8520833 0 0 0 -1.367896,-0.45773 2.1563541,2.1563541 0 0 0 -1.322917,0.39952 1.17475,1.17475 0 0 0 -0.529166,0.96573 H 86.15835 a 2.0452291,2.0452291 0 0 1 0.460375,-1.25148 3.1379583,3.1379583 0 0 1 1.246188,-0.95515 4.2333333,4.2333333 0 0 1 1.730375,-0.35189 c 0.997479,0 1.780645,0.24871 2.344208,0.74877 a 2.6934583,2.6934583 0 0 1 0.881062,2.05846 v 3.98462 a 4.8418749,4.8418749 0 0 0 0.304271,1.89442 v 0.127 z m -2.455333,-1.12713 a 2.5955625,2.5955625 0 0 0 1.322917,-0.35983 2.1616458,2.1616458 0 0 0 0.902229,-0.93663 v -1.77535 h -1.158875 q -2.717271,0 -2.719917,1.5875 a 1.349375,1.349375 0 0 0 0.465667,1.08744 1.778,1.778 0 0 0 1.198562,0.39687 z"
         id="path32"
         inkscape:connector-curvature="0"
         style="fill:#6da83e;fill-opacity:1;stroke-width:0.26458332" />
      <path
         class="cls-2"
         d="m 38.858788,203.19268 h -7.101416 l -1.5875,4.42913 h -2.301875 l 6.463771,-16.93334 h 1.952624 l 6.477,16.93334 h -2.291291 z m -6.418791,-1.82562 h 5.754687 l -2.883958,-7.91898 z"
         id="path86"
         inkscape:connector-curvature="0"
         style="fill:#6da83e;fill-opacity:1;stroke-width:0.26458332" />
      <path
         class="cls-3"
         d="m 118.15706,207.74086 a 3.77825,3.77825 0 0 1 -2.8628,-1.15623 q -1.10331,-1.15358 -1.10331,-3.09033 v -0.26459 a 5.1858333,5.1858333 0 0 1 0.48948,-2.29923 3.8523333,3.8523333 0 0 1 1.37583,-1.5875 3.4633958,3.4633958 0 0 1 1.91559,-0.5715 q 1.68804,0 2.62466,1.11125 0.93663,1.11125 0.93398,3.175 v 0.61648 h -5.86052 a 3.0771041,3.0771041 0 0 0 0.74613,2.0664 2.3521458,2.3521458 0 0 0 1.82033,0.79375 2.57175,2.57175 0 0 0 1.32292,-0.32015 3.3205208,3.3205208 0 0 0 0.9525,-0.84666 l 0.90223,0.70379 q -1.08215,1.66687 -3.25702,1.66952 z m -0.18521,-7.75759 a 1.9711458,1.9711458 0 0 0 -1.50284,0.65088 3.175,3.175 0 0 0 -0.75141,1.82827 h 4.33387 v -0.11377 a 2.8125208,2.8125208 0 0 0 -0.60854,-1.74625 1.8520833,1.8520833 0 0 0 -1.47108,-0.61913 z"
         id="path88"
         inkscape:connector-curvature="0"
         style="fill:#02489c;fill-opacity:1;stroke-width:0.26458332" />
      <path
         class="cls-3"
         d="m 126.87772,206.53171 a 2.1166666,2.1166666 0 0 0 1.38377,-0.47889 1.6880416,1.6880416 0 0 0 0.65617,-1.20121 h 1.39965 a 2.6908125,2.6908125 0 0 1 -0.5133,1.41816 3.3549166,3.3549166 0 0 1 -1.25941,1.07157 3.65125,3.65125 0 0 1 -1.66688,0.39952 3.5665833,3.5665833 0 0 1 -2.80987,-1.18004 q -1.04246,-1.18005 -1.04511,-3.22792 v -0.24871 a 5.2440416,5.2440416 0 0 1 0.46302,-2.24631 3.5268958,3.5268958 0 0 1 1.32292,-1.52665 3.77825,3.77825 0 0 1 2.05052,-0.54504 3.4713333,3.4713333 0 0 1 2.42094,0.87313 3.1141458,3.1141458 0 0 1 1.02658,2.26218 h -1.39964 a 2.032,2.032 0 0 0 -0.635,-1.37848 1.9790833,1.9790833 0 0 0 -1.41288,-0.52916 2.0716875,2.0716875 0 0 0 -1.74625,0.80962 c -0.41275,0.5424 -0.62177,1.32292 -0.62177,2.3495 v 0.27782 q 0,1.49489 0.61648,2.30452 a 2.0849166,2.0849166 0 0 0 1.77006,0.79639 z"
         id="path90"
         inkscape:connector-curvature="0"
         style="fill:#02489c;fill-opacity:1;stroke-width:0.26458332" />
      <path
         class="cls-3"
         d="m 136.32864,200.25315 a 4.4979166,4.4979166 0 0 0 -0.72761,-0.0556 q -1.45785,0 -1.97643,1.24089 v 6.14098 h -1.47902 v -8.65187 h 1.43933 l 0.0238,0.99748 a 2.301875,2.301875 0 0 1 2.06375,-1.15888 1.5345833,1.5345833 0 0 1 0.65617,0.11113 z"
         id="path92"
         inkscape:connector-curvature="0"
         style="fill:#02489c;fill-opacity:1;stroke-width:0.26458332" />
      <path
         class="cls-3"
         d="m 143.19458,206.73015 q -0.86519,1.016 -2.53736,1.016 c -0.92075,0 -1.62454,-0.26458 -2.11666,-0.79375 -0.49213,-0.52917 -0.72761,-1.32292 -0.7329,-2.38125 v -5.64356 h 1.47902 v 5.59064 q 0,1.96321 1.5875,1.96586 1.69333,0 2.25425,-1.26207 v -6.29443 h 1.48167 v 8.65187 h -1.38377 z"
         id="path94"
         inkscape:connector-curvature="0"
         style="fill:#02489c;fill-opacity:1;stroke-width:0.26458332" />
      <path
         class="cls-3"
         d="m 147.0522,196.631 a 0.89164582,0.89164582 0 0 1 0.21961,-0.60854 0.99218749,0.99218749 0 0 1 1.30704,0 0.87047916,0.87047916 0 0 1 0.22489,0.60854 0.84137499,0.84137499 0 0 1 -0.22489,0.60061 0.87312499,0.87312499 0 0 1 -1.52665,-0.60061 z m 1.5875,10.94846 h -1.48167 v -8.65187 h 1.48167 z"
         id="path96"
         inkscape:connector-curvature="0"
         style="fill:#02489c;fill-opacity:1;stroke-width:0.26458332" />
      <path
         class="cls-3"
         d="m 153.20112,196.83209 v 2.0955 h 1.6166 v 1.143 h -1.6166 v 5.37368 a 1.1932708,1.1932708 0 0 0 0.21696,0.78053 0.91016666,0.91016666 0 0 0 0.73554,0.26458 3.6247916,3.6247916 0 0 0 0.70379,-0.0953 v 1.19327 a 4.3179999,4.3179999 0 0 1 -1.13771,0.15875 1.8520833,1.8520833 0 0 1 -1.49489,-0.6006 2.5770416,2.5770416 0 0 1 -0.50271,-1.70392 v -5.37104 h -1.5875 v -1.143 h 1.5875 v -2.0955 z"
         id="path98"
         inkscape:connector-curvature="0"
         style="fill:#02489c;fill-opacity:1;stroke-width:0.26458332" />
      <path
         class="cls-3"
         d="m 156.7042,196.631 a 0.88106249,0.88106249 0 0 1 0.22225,-0.60854 0.82549999,0.82549999 0 0 1 0.65088,-0.24606 0.84402082,0.84402082 0 0 1 0.65616,0.24606 0.88106249,0.88106249 0 0 1 0.22225,0.60854 0.79374999,0.79374999 0 0 1 -0.87841,0.83873 0.83872916,0.83872916 0 0 1 -0.65088,-0.23812 0.85195832,0.85195832 0 0 1 -0.22225,-0.60061 z m 1.5875,10.94846 h -1.46579 v -8.65187 h 1.47902 z"
         id="path100"
         inkscape:connector-curvature="0"
         style="fill:#02489c;fill-opacity:1;stroke-width:0.26458332" />
      <path
         class="cls-3"
         d="m 162.23664,198.92759 0.0476,1.08743 a 3.1485416,3.1485416 0 0 1 2.59027,-1.24883 q 2.74109,0 2.76755,3.09563 v 5.71764 h -1.47638 v -5.72558 q 0,-0.93663 -0.42862,-1.38377 -0.42863,-0.44715 -1.30705,-0.44715 a 2.1351875,2.1351875 0 0 0 -1.2647,0.38365 2.5638125,2.5638125 0 0 0 -0.84667,1.00806 v 6.16479 h -1.47902 v -8.65187 z"
         id="path102"
         inkscape:connector-curvature="0"
         style="fill:#02489c;fill-opacity:1;stroke-width:0.26458332" />
      <path
         class="cls-3"
         d="m 169.68466,203.18209 q 0,-2.02407 0.93662,-3.21998 a 3.2252708,3.2252708 0 0 1 4.95036,-0.0767 l 0.0714,-0.95779 h 1.35202 v 8.4455 q 0,1.6801 -0.99484,2.64583 -0.99483,0.96573 -2.67493,0.96838 a 4.4291249,4.4291249 0 0 1 -1.83092,-0.39953 3.175,3.175 0 0 1 -1.3679,-1.09537 l 0.7673,-0.889 a 2.8945416,2.8945416 0 0 0 2.32568,1.17475 2.2674791,2.2674791 0 0 0 1.6854,-0.6059 2.3256875,2.3256875 0 0 0 0.60325,-1.71185 v -0.73025 a 3.0427083,3.0427083 0 0 1 -2.42358,1.02394 2.95275,2.95275 0 0 1 -2.45798,-1.22502 q -0.93927,-1.23561 -0.94192,-3.34698 z m 1.4896,0.16668 q 0,1.46315 0.59796,2.29923 a 1.9473333,1.9473333 0 0 0 1.68011,0.83609 2.1669375,2.1669375 0 0 0 2.05581,-1.27 v -3.95288 a 2.19075,2.19075 0 0 0 -2.03994,-1.23825 1.9632083,1.9632083 0 0 0 -1.68804,0.83873 q -0.6059,0.84138 -0.6059,2.48708 z"
         id="path104"
         inkscape:connector-curvature="0"
         style="fill:#02489c;fill-opacity:1;stroke-width:0.26458332" />
      <path
         class="cls-3"
         d="m 106.69266,201.2083 h -3.76237 v 6.46906 h -2.11667 v -15.98877 h 5.29167 q 2.70404,0 4.1566,1.23031 1.45256,1.23031 1.45521,3.57981 a 4.3047708,4.3047708 0 0 1 -0.80698,2.60086 4.7942499,4.7942499 0 0 1 -2.24631,1.65893 l 3.75708,6.78657 v 0.13229 h -2.26219 z m -3.76237,-1.72244 h 3.2385 q 1.57162,0 2.49766,-0.81492 a 2.7516666,2.7516666 0 0 0 0.92869,-2.17752 c 0,-0.99219 -0.29369,-1.74889 -0.88371,-2.27806 -0.59002,-0.52917 -1.44198,-0.79375 -2.55323,-0.79375 h -3.22791 z"
         id="path106"
         inkscape:connector-curvature="0"
         style="fill:#02489c;fill-opacity:1;stroke-width:0.26458332" />
    </g>
  </g>
</svg>
